<svg width="150" height="49" viewBox="0 0 125 49" fill="none" xmlns="http://www.w3.org/2000/svg">
<g filter="url(#filter0_d_2_3)">
<path d="M38.94 1.08C39.5 1.08 40.18 1.46 40.98 2.22C41.82 2.94 42.24 3.56 42.24 4.08C42.24 6.52 42.16 9.86 42 14.1C41.96 15.14 41.92 16.4 41.88 17.88C41.84 19.32 41.82 21 41.82 22.92C41.82 29 42.18 33.48 42.9 36.36C42.86 37.32 42.48 38.02 41.76 38.46C41.04 38.86 40.32 39.06 39.6 39.06C38 39.06 36.94 38.5 36.42 37.38C35.94 36.26 35.7 34.66 35.7 32.58C35.7 24.86 35.78 17.76 35.94 11.28C31.34 16.4 27.76 20.7 25.2 24.18C25.2 24.18 24.84 24.42 24.12 24.9C23.44 25.5 22.88 25.8 22.44 25.8C21.4 25.8 20.54 25.54 19.86 25.02C19.18 24.5 18.52 23.74 17.88 22.74L15 18.66C13 15.86 11.54 13.74 10.62 12.3C10.62 15.98 10.8 20.98 11.16 27.3C11.44 30.94 11.58 33.68 11.58 35.52C11.58 36.48 11.34 37.3 10.86 37.98C10.38 38.62 9.62 38.94 8.58 38.94C7.54 38.94 6.68 38.74 6 38.34C5.36 37.94 5.02 37.34 4.98 36.54C5.02 35.86 5.04 34.74 5.04 33.18C5.04 30.06 4.94 26.26 4.74 21.78L4.62 18.54L4.5 14.34C4.46 13.1 4.42 11.66 4.38 10.02C4.34 8.34 4.32 6.52 4.32 4.56C4.32 2.16 5.62 0.96 8.22 0.96C9.02 0.96 9.82 1.16 10.62 1.56C11.46 1.96 12.08 2.54 12.48 3.3C12.8 4.7 13.98 7.02 16.02 10.26C18.06 13.5 20.06 16.54 22.02 19.38C23.78 17.14 25.22 15.46 26.34 14.34C28.26 12.38 29.84 10.56 31.08 8.88C32.36 7.2 33.74 5.18 35.22 2.82C35.58 2.34 36.1 1.94 36.78 1.62C37.46 1.26 38.18 1.08 38.94 1.08ZM60.548 0.899997C61.308 0.899997 61.988 1.1 62.588 1.5C63.228 1.9 63.608 2.6 63.728 3.6C64.208 6.76 64.508 9.92 64.628 13.08C64.788 16.2 64.868 19.74 64.868 23.7C64.868 25.38 64.728 28.44 64.448 32.88C66.208 33.04 67.568 33.12 68.528 33.12C69.208 33.12 70.748 33.02 73.148 32.82C74.548 32.62 75.768 32.52 76.808 32.52C77.768 32.52 78.648 32.62 79.448 32.82C80.248 32.98 81.068 33.26 81.908 33.66C82.748 34.14 83.168 34.88 83.168 35.88C83.168 36.68 82.908 37.4 82.388 38.04C81.908 38.68 81.328 39 80.648 39C80.168 39 79.408 38.92 78.368 38.76C76.488 38.48 74.688 38.34 72.968 38.34C72.408 38.34 71.768 38.38 71.048 38.46C70.368 38.5 69.868 38.52 69.548 38.52C68.588 38.64 67.628 38.7 66.668 38.7C64.708 38.7 62.948 38.6 61.388 38.4C60.588 38.32 59.788 38.02 58.988 37.5C58.188 36.94 57.788 36.14 57.788 35.1C57.788 34.5 57.868 32.96 58.028 30.48C58.308 26.36 58.448 23.22 58.448 21.06C58.448 19.38 58.368 17.62 58.208 15.78C58.048 13.94 57.948 12.78 57.908 12.3C57.548 8.9 57.368 6.1 57.368 3.9C57.368 2.86 57.608 2.1 58.088 1.62C58.608 1.14 59.428 0.899997 60.548 0.899997ZM126.121 35.64C126.521 35.84 126.821 36.1 127.021 36.42C127.261 36.74 127.381 37.2 127.381 37.8C127.381 38.56 127.081 39.16 126.481 39.6C125.881 40.08 125.221 40.32 124.501 40.32C123.621 40.32 122.621 40.1 121.501 39.66C119.261 38.66 117.001 36.62 114.721 33.54C112.441 30.42 109.941 26.32 107.221 21.24C104.941 23 102.621 24.64 100.261 26.16C100.261 27 100.281 27.98 100.321 29.1C100.401 30.18 100.441 30.98 100.441 31.5C100.521 33.82 100.561 35.36 100.561 36.12C100.561 36.8 100.341 37.46 99.9009 38.1C99.4609 38.7 98.8009 39 97.9209 39C96.6409 39 95.7209 38.8 95.1609 38.4C94.6009 37.96 94.2609 37.34 94.1409 36.54C93.8209 34.54 93.6609 32.62 93.6609 30.78C93.6609 28.7 93.8209 25.7 94.1409 21.78C94.4609 18.02 94.6209 15.2 94.6209 13.32C94.6209 12.6 94.5809 11.56 94.5009 10.2C94.4609 9.12 94.3409 8.12 94.1409 7.2C93.9809 5.92 93.9009 5.02 93.9009 4.5C93.9009 3.22 94.1809 2.3 94.7409 1.74C95.3009 1.18 96.1609 0.899997 97.3209 0.899997C98.2009 0.899997 98.9209 1.16 99.4809 1.68C100.081 2.16 100.421 2.82 100.501 3.66C100.701 7.06 100.801 9.68 100.801 11.52C100.761 12.52 100.681 13.96 100.561 15.84C100.481 17.68 100.401 18.84 100.321 19.32C101.681 18.56 104.341 16.38 108.301 12.78C112.301 9.14 115.141 6.28 116.821 4.2L117.601 3.3C118.241 2.46 118.781 1.88 119.221 1.56C119.661 1.24 120.261 1.08 121.021 1.08C121.781 1.08 122.461 1.34 123.061 1.86C123.701 2.34 124.021 2.92 124.021 3.6C124.021 4.92 123.341 6.26 121.981 7.62C118.661 11.06 115.341 14.26 112.021 17.22C114.381 21.66 116.681 25.48 118.921 28.68C121.201 31.84 123.601 34.16 126.121 35.64Z" fill="#FFECEC"/>
<path d="M40.98 2.22L40.2913 2.945L40.3098 2.96261L40.3292 2.97925L40.98 2.22ZM42 14.1L42.9993 14.1384L42.9993 14.1377L42 14.1ZM41.88 17.88L42.8796 17.9078L42.8796 17.907L41.88 17.88ZM42.9 36.36L43.8991 36.4016L43.9051 36.2575L43.8701 36.1175L42.9 36.36ZM41.76 38.46L42.2456 39.3342L42.2638 39.3241L42.2815 39.3133L41.76 38.46ZM36.42 37.38L35.5009 37.7739L35.5067 37.7876L35.513 37.8011L36.42 37.38ZM35.94 11.28L36.9397 11.3047L37.0066 8.59659L35.1961 10.6117L35.94 11.28ZM25.2 24.18L25.7547 25.012L25.9012 24.9144L26.0055 24.7726L25.2 24.18ZM24.12 24.9L23.5653 24.0679L23.5091 24.1054L23.4584 24.1502L24.12 24.9ZM19.86 25.02L20.4675 24.2256L20.4675 24.2256L19.86 25.02ZM17.88 22.74L18.7223 22.2009L18.71 22.1818L18.697 22.1633L17.88 22.74ZM15 18.66L15.817 18.0833L15.8137 18.0788L15 18.66ZM10.62 12.3L11.4627 11.7616L9.62 8.87739V12.3H10.62ZM11.16 27.3L10.1616 27.3569L10.1622 27.3668L10.1629 27.3767L11.16 27.3ZM10.86 37.98L11.66 38.58L11.6687 38.5685L11.677 38.5567L10.86 37.98ZM6 38.34L5.47 39.188L5.4814 39.1951L5.49298 39.2019L6 38.34ZM4.98 36.54L3.98173 36.4813L3.97853 36.5356L3.98125 36.5899L4.98 36.54ZM4.74 21.78L3.74066 21.817L3.741 21.8246L4.74 21.78ZM4.62 18.54L3.62037 18.5686L3.62069 18.577L4.62 18.54ZM4.5 14.34L5.4996 14.3114L5.49948 14.3078L4.5 14.34ZM4.38 10.02L3.38028 10.0438L3.3803 10.0444L4.38 10.02ZM10.62 1.56L10.1728 2.45443L10.1814 2.45873L10.1901 2.46286L10.62 1.56ZM12.48 3.3L13.4549 3.07717L13.4258 2.94984L13.3649 2.83425L12.48 3.3ZM16.02 10.26L16.8662 9.72718L16.8662 9.72718L16.02 10.26ZM22.02 19.38L21.197 19.948L21.9678 21.065L22.8063 19.9978L22.02 19.38ZM26.34 14.34L27.0471 15.0471L27.0544 15.0398L26.34 14.34ZM31.08 8.88L30.2846 8.27395L30.28 8.28002L30.2754 8.28615L31.08 8.88ZM35.22 2.82L34.42 2.22L34.395 2.25337L34.3728 2.28871L35.22 2.82ZM36.78 1.62L37.2058 2.52482L37.2271 2.5148L37.2479 2.50379L36.78 1.62ZM38.94 2.08C39.0882 2.08 39.5206 2.21285 40.2913 2.945L41.6688 1.495C40.8394 0.707149 39.9118 0.0799983 38.94 0.0799983V2.08ZM40.3292 2.97925C40.7105 3.30611 40.9547 3.57559 41.0971 3.78585C41.2421 3.99986 41.24 4.09007 41.24 4.08H43.24C43.24 3.54993 43.0279 3.07014 42.7529 2.66415C42.4754 2.25441 42.0895 1.85389 41.6308 1.46074L40.3292 2.97925ZM41.24 4.08C41.24 6.50155 41.1605 9.82716 41.0007 14.0623L42.9993 14.1377C43.1595 9.89284 43.24 6.53844 43.24 4.08H41.24ZM41.0007 14.0616C40.9605 15.1066 40.9204 16.3706 40.8804 17.853L42.8796 17.907C42.9196 16.4294 42.9595 15.1734 42.9993 14.1384L41.0007 14.0616ZM40.8804 17.8522C40.8401 19.3039 40.82 20.9936 40.82 22.92H42.82C42.82 21.0064 42.8399 19.3361 42.8796 17.9078L40.8804 17.8522ZM40.82 22.92C40.82 29.0152 41.1786 33.5976 41.9299 36.6025L43.8701 36.1175C43.1814 33.3624 42.82 28.9848 42.82 22.92H40.82ZM41.9009 36.3184C41.8725 36.999 41.6307 37.367 41.2386 37.6067L42.2815 39.3133C43.3293 38.673 43.8475 37.641 43.8991 36.4016L41.9009 36.3184ZM41.2744 37.5858C40.6813 37.9153 40.1269 38.06 39.6 38.06V40.06C40.5131 40.06 41.3987 39.8047 42.2456 39.3342L41.2744 37.5858ZM39.6 38.06C38.2513 38.06 37.632 37.6159 37.327 36.9589L35.513 37.8011C36.248 39.3841 37.7487 40.06 39.6 40.06V38.06ZM37.3391 36.9861C36.9375 36.0488 36.7 34.6069 36.7 32.58H34.7C34.7 34.7131 34.9426 36.4712 35.5009 37.7739L37.3391 36.9861ZM36.7 32.58C36.7 24.8667 36.7799 17.7751 36.9397 11.3047L34.9403 11.2553C34.7801 17.7449 34.7 24.8533 34.7 32.58H36.7ZM35.1961 10.6117C30.5855 15.7435 26.9816 20.0705 24.3945 23.5874L26.0055 24.7726C28.5384 21.3295 32.0945 17.0565 36.6839 11.9483L35.1961 10.6117ZM25.2 24.18C24.6453 23.3479 24.6453 23.3479 24.6453 23.348C24.6453 23.348 24.6453 23.348 24.6453 23.348C24.6453 23.348 24.6453 23.348 24.6453 23.348C24.6453 23.348 24.6452 23.348 24.6452 23.348C24.6452 23.348 24.6452 23.348 24.6452 23.348C24.6452 23.348 24.6452 23.348 24.6452 23.348C24.6451 23.3481 24.6451 23.3481 24.6451 23.3481C24.6451 23.3481 24.6451 23.3481 24.645 23.3481C24.645 23.3481 24.645 23.3482 24.645 23.3482C24.6449 23.3482 24.6449 23.3482 24.6449 23.3482C24.6449 23.3482 24.6448 23.3483 24.6448 23.3483C24.6448 23.3483 24.6447 23.3483 24.6447 23.3483C24.6447 23.3484 24.6446 23.3484 24.6446 23.3484C24.6446 23.3484 24.6445 23.3485 24.6445 23.3485C24.6445 23.3485 24.6444 23.3485 24.6444 23.3486C24.6443 23.3486 24.6443 23.3486 24.6442 23.3487C24.6442 23.3487 24.6442 23.3487 24.6441 23.3487C24.6441 23.3488 24.644 23.3488 24.644 23.3488C24.6439 23.3489 24.6439 23.3489 24.6438 23.3489C24.6438 23.349 24.6437 23.349 24.6437 23.349C24.6436 23.3491 24.6435 23.3491 24.6435 23.3492C24.6434 23.3492 24.6434 23.3492 24.6433 23.3493C24.6432 23.3493 24.6432 23.3494 24.6431 23.3494C24.6431 23.3494 24.643 23.3495 24.6429 23.3495C24.6429 23.3496 24.6428 23.3496 24.6427 23.3497C24.6427 23.3497 24.6426 23.3498 24.6425 23.3498C24.6424 23.3499 24.6424 23.3499 24.6423 23.35C24.6422 23.35 24.6421 23.3501 24.6421 23.3501C24.642 23.3502 24.6419 23.3502 24.6418 23.3503C24.6418 23.3503 24.6417 23.3504 24.6416 23.3504C24.6415 23.3505 24.6414 23.3505 24.6413 23.3506C24.6413 23.3506 24.6412 23.3507 24.6411 23.3508C24.641 23.3508 24.6409 23.3509 24.6408 23.3509C24.6407 23.351 24.6406 23.3511 24.6405 23.3511C24.6404 23.3512 24.6404 23.3512 24.6403 23.3513C24.6402 23.3514 24.6401 23.3514 24.64 23.3515C24.6399 23.3516 24.6398 23.3516 24.6397 23.3517C24.6396 23.3518 24.6395 23.3518 24.6394 23.3519C24.6392 23.352 24.6391 23.3521 24.639 23.3521C24.6389 23.3522 24.6388 23.3523 24.6387 23.3523C24.6386 23.3524 24.6385 23.3525 24.6384 23.3526C24.6383 23.3526 24.6381 23.3527 24.638 23.3528C24.6379 23.3529 24.6378 23.3529 24.6377 23.353C24.6376 23.3531 24.6374 23.3532 24.6373 23.3533C24.6372 23.3533 24.6371 23.3534 24.637 23.3535C24.6368 23.3536 24.6367 23.3537 24.6366 23.3538C24.6365 23.3538 24.6363 23.3539 24.6362 23.354C24.6361 23.3541 24.6359 23.3542 24.6358 23.3543C24.6357 23.3544 24.6355 23.3545 24.6354 23.3545C24.6353 23.3546 24.6351 23.3547 24.635 23.3548C24.6349 23.3549 24.6347 23.355 24.6346 23.3551C24.6344 23.3552 24.6343 23.3553 24.6342 23.3554C24.634 23.3555 24.6339 23.3556 24.6337 23.3557C24.6336 23.3558 24.6334 23.3559 24.6333 23.356C24.6331 23.3561 24.633 23.3562 24.6328 23.3563C24.6327 23.3564 24.6325 23.3565 24.6324 23.3566C24.6322 23.3567 24.6321 23.3568 24.6319 23.3569C24.6318 23.357 24.6316 23.3571 24.6314 23.3572C24.6313 23.3573 24.6311 23.3574 24.631 23.3575C24.6308 23.3576 24.6306 23.3577 24.6305 23.3578C24.6303 23.3579 24.6301 23.3581 24.63 23.3582C24.6298 23.3583 24.6296 23.3584 24.6295 23.3585C24.6293 23.3586 24.6291 23.3587 24.6289 23.3589C24.6288 23.359 24.6286 23.3591 24.6284 23.3592C24.6283 23.3593 24.6281 23.3594 24.6279 23.3596C24.6277 23.3597 24.6275 23.3598 24.6274 23.3599C24.6272 23.36 24.627 23.3602 24.6268 23.3603C24.6266 23.3604 24.6264 23.3605 24.6263 23.3606C24.6261 23.3608 24.6259 23.3609 24.6257 23.361C24.6255 23.3612 24.6253 23.3613 24.6251 23.3614C24.6249 23.3615 24.6247 23.3617 24.6245 23.3618C24.6243 23.3619 24.6241 23.3621 24.6239 23.3622C24.6237 23.3623 24.6235 23.3625 24.6233 23.3626C24.6231 23.3627 24.6229 23.3629 24.6227 23.363C24.6225 23.3631 24.6223 23.3633 24.6221 23.3634C24.6219 23.3635 24.6217 23.3637 24.6215 23.3638C24.6213 23.364 24.6211 23.3641 24.6209 23.3642C24.6207 23.3644 24.6205 23.3645 24.6202 23.3647C24.62 23.3648 24.6198 23.3649 24.6196 23.3651C24.6194 23.3652 24.6192 23.3654 24.6189 23.3655C24.6187 23.3657 24.6185 23.3658 24.6183 23.366C24.618 23.3661 24.6178 23.3663 24.6176 23.3664C24.6174 23.3666 24.6171 23.3667 24.6169 23.3669C24.6167 23.367 24.6165 23.3672 24.6162 23.3673C24.616 23.3675 24.6158 23.3676 24.6155 23.3678C24.6153 23.3679 24.6151 23.3681 24.6148 23.3683C24.6146 23.3684 24.6144 23.3686 24.6141 23.3687C24.6139 23.3689 24.6136 23.3691 24.6134 23.3692C24.6132 23.3694 24.6129 23.3695 24.6127 23.3697C24.6124 23.3699 24.6122 23.37 24.6119 23.3702C24.6117 23.3704 24.6114 23.3705 24.6112 23.3707C24.6109 23.3709 24.6107 23.371 24.6104 23.3712C24.6102 23.3714 24.6099 23.3715 24.6097 23.3717C24.6094 23.3719 24.6092 23.372 24.6089 23.3722C24.6086 23.3724 24.6084 23.3726 24.6081 23.3727C24.6079 23.3729 24.6076 23.3731 24.6073 23.3733C24.6071 23.3734 24.6068 23.3736 24.6065 23.3738C24.6063 23.374 24.606 23.3741 24.6057 23.3743C24.6055 23.3745 24.6052 23.3747 24.6049 23.3749C24.6047 23.375 24.6044 23.3752 24.6041 23.3754C24.6038 23.3756 24.6036 23.3758 24.6033 23.376C24.603 23.3762 24.6027 23.3763 24.6024 23.3765C24.6022 23.3767 24.6019 23.3769 24.6016 23.3771C24.6013 23.3773 24.601 23.3775 24.6007 23.3777C24.6005 23.3778 24.6002 23.378 24.5999 23.3782C24.5996 23.3784 24.5993 23.3786 24.599 23.3788C24.5987 23.379 24.5984 23.3792 24.5981 23.3794C24.5978 23.3796 24.5975 23.3798 24.5972 23.38C24.597 23.3802 24.5967 23.3804 24.5964 23.3806C24.5961 23.3808 24.5958 23.381 24.5955 23.3812C24.5951 23.3814 24.5948 23.3816 24.5945 23.3818C24.5942 23.382 24.5939 23.3822 24.5936 23.3824C24.5933 23.3826 24.593 23.3828 24.5927 23.383C24.5924 23.3832 24.5921 23.3834 24.5918 23.3836C24.5914 23.3839 24.5911 23.3841 24.5908 23.3843C24.5905 23.3845 24.5902 23.3847 24.5899 23.3849C24.5895 23.3851 24.5892 23.3853 24.5889 23.3855C24.5886 23.3858 24.5883 23.386 24.5879 23.3862C24.5876 23.3864 24.5873 23.3866 24.587 23.3868C24.5866 23.3871 24.5863 23.3873 24.586 23.3875C24.5856 23.3877 24.5853 23.3879 24.585 23.3882C24.5846 23.3884 24.5843 23.3886 24.584 23.3888C24.5836 23.3891 24.5833 23.3893 24.583 23.3895C24.5826 23.3897 24.5823 23.39 24.582 23.3902C24.5816 23.3904 24.5813 23.3906 24.5809 23.3909C24.5806 23.3911 24.5802 23.3913 24.5799 23.3916C24.5795 23.3918 24.5792 23.392 24.5789 23.3922C24.5785 23.3925 24.5782 23.3927 24.5778 23.3929C24.5774 23.3932 24.5771 23.3934 24.5767 23.3937C24.5764 23.3939 24.576 23.3941 24.5757 23.3944C24.5753 23.3946 24.575 23.3948 24.5746 23.3951C24.5742 23.3953 24.5739 23.3956 24.5735 23.3958C24.5732 23.396 24.5728 23.3963 24.5724 23.3965C24.5721 23.3968 24.5717 23.397 24.5713 23.3973C24.571 23.3975 24.5706 23.3978 24.5702 23.398C24.5698 23.3983 24.5695 23.3985 24.5691 23.3987C24.5687 23.399 24.5684 23.3992 24.568 23.3995C24.5676 23.3998 24.5672 23.4 24.5668 23.4003C24.5665 23.4005 24.5661 23.4008 24.5657 23.401C24.5653 23.4013 24.5649 23.4015 24.5646 23.4018C24.5642 23.402 24.5638 23.4023 24.5634 23.4026C24.563 23.4028 24.5626 23.4031 24.5622 23.4033C24.5618 23.4036 24.5614 23.4039 24.5611 23.4041C24.5607 23.4044 24.5603 23.4046 24.5599 23.4049C24.5595 23.4052 24.5591 23.4054 24.5587 23.4057C24.5583 23.406 24.5579 23.4062 24.5575 23.4065C24.5571 23.4068 24.5567 23.407 24.5563 23.4073C24.5559 23.4076 24.5555 23.4078 24.5551 23.4081C24.5547 23.4084 24.5542 23.4087 24.5538 23.4089C24.5534 23.4092 24.553 23.4095 24.5526 23.4097C24.5522 23.41 24.5518 23.4103 24.5514 23.4106C24.5509 23.4109 24.5505 23.4111 24.5501 23.4114C24.5497 23.4117 24.5493 23.412 24.5489 23.4122C24.5484 23.4125 24.548 23.4128 24.5476 23.4131C24.5472 23.4134 24.5467 23.4137 24.5463 23.4139C24.5459 23.4142 24.5455 23.4145 24.545 23.4148C24.5446 23.4151 24.5442 23.4154 24.5438 23.4156C24.5433 23.4159 24.5429 23.4162 24.5425 23.4165C24.542 23.4168 24.5416 23.4171 24.5411 23.4174C24.5407 23.4177 24.5403 23.418 24.5398 23.4183C24.5394 23.4186 24.539 23.4188 24.5385 23.4191C24.5381 23.4194 24.5376 23.4197 24.5372 23.42C24.5367 23.4203 24.5363 23.4206 24.5358 23.4209C24.5354 23.4212 24.5349 23.4215 24.5345 23.4218C24.534 23.4221 24.5336 23.4224 24.5331 23.4227C24.5327 23.423 24.5322 23.4233 24.5318 23.4236C24.5313 23.4239 24.5309 23.4242 24.5304 23.4245C24.5299 23.4249 24.5295 23.4252 24.529 23.4255C24.5286 23.4258 24.5281 23.4261 24.5276 23.4264C24.5272 23.4267 24.5267 23.427 24.5262 23.4273C24.5258 23.4276 24.5253 23.4279 24.5248 23.4283C24.5244 23.4286 24.5239 23.4289 24.5234 23.4292C24.5229 23.4295 24.5225 23.4298 24.522 23.4302C24.5215 23.4305 24.521 23.4308 24.5206 23.4311C24.5201 23.4314 24.5196 23.4317 24.5191 23.4321C24.5186 23.4324 24.5182 23.4327 24.5177 23.433C24.5172 23.4333 24.5167 23.4337 24.5162 23.434C24.5157 23.4343 24.5153 23.4346 24.5148 23.435C24.5143 23.4353 24.5138 23.4356 24.5133 23.436C24.5128 23.4363 24.5123 23.4366 24.5118 23.4369C24.5113 23.4373 24.5108 23.4376 24.5103 23.4379C24.5098 23.4383 24.5093 23.4386 24.5088 23.4389C24.5083 23.4393 24.5078 23.4396 24.5073 23.4399C24.5068 23.4403 24.5063 23.4406 24.5058 23.4409C24.5053 23.4413 24.5048 23.4416 24.5043 23.442C24.5038 23.4423 24.5033 23.4426 24.5028 23.443C24.5023 23.4433 24.5017 23.4437 24.5012 23.444C24.5007 23.4443 24.5002 23.4447 24.4997 23.445C24.4992 23.4454 24.4987 23.4457 24.4981 23.4461C24.4976 23.4464 24.4971 23.4468 24.4966 23.4471C24.4961 23.4474 24.4955 23.4478 24.495 23.4481C24.4945 23.4485 24.494 23.4488 24.4934 23.4492C24.4929 23.4496 24.4924 23.4499 24.4918 23.4503C24.4913 23.4506 24.4908 23.451 24.4902 23.4513C24.4897 23.4517 24.4892 23.452 24.4886 23.4524C24.4881 23.4527 24.4876 23.4531 24.487 23.4535C24.4865 23.4538 24.486 23.4542 24.4854 23.4545C24.4849 23.4549 24.4843 23.4553 24.4838 23.4556C24.4832 23.456 24.4827 23.4564 24.4821 23.4567C24.4816 23.4571 24.4811 23.4574 24.4805 23.4578C24.48 23.4582 24.4794 23.4585 24.4789 23.4589C24.4783 23.4593 24.4777 23.4597 24.4772 23.46C24.4766 23.4604 24.4761 23.4608 24.4755 23.4611C24.475 23.4615 24.4744 23.4619 24.4738 23.4623C24.4733 23.4626 24.4727 23.463 24.4722 23.4634C24.4716 23.4637 24.471 23.4641 24.4705 23.4645C24.4699 23.4649 24.4693 23.4653 24.4688 23.4656C24.4682 23.466 24.4676 23.4664 24.4671 23.4668C24.4665 23.4672 24.4659 23.4675 24.4653 23.4679C24.4648 23.4683 24.4642 23.4687 24.4636 23.4691C24.463 23.4695 24.4625 23.4698 24.4619 23.4702C24.4613 23.4706 24.4607 23.471 24.4601 23.4714C24.4596 23.4718 24.459 23.4722 24.4584 23.4726C24.4578 23.4729 24.4572 23.4733 24.4566 23.4737C24.456 23.4741 24.4555 23.4745 24.4549 23.4749C24.4543 23.4753 24.4537 23.4757 24.4531 23.4761C24.4525 23.4765 24.4519 23.4769 24.4513 23.4773C24.4507 23.4777 24.4501 23.4781 24.4495 23.4785C24.4489 23.4789 24.4483 23.4793 24.4477 23.4797C24.4471 23.4801 24.4465 23.4805 24.4459 23.4809C24.4453 23.4813 24.4447 23.4817 24.4441 23.4821C24.4435 23.4825 24.4429 23.4829 24.4423 23.4833C24.4416 23.4837 24.441 23.4841 24.4404 23.4845C24.4398 23.4849 24.4392 23.4854 24.4386 23.4858C24.438 23.4862 24.4374 23.4866 24.4367 23.487C24.4361 23.4874 24.4355 23.4878 24.4349 23.4882C24.4343 23.4886 24.4336 23.4891 24.433 23.4895C24.4324 23.4899 24.4318 23.4903 24.4311 23.4907C24.4305 23.4911 24.4299 23.4916 24.4293 23.492C24.4286 23.4924 24.428 23.4928 24.4274 23.4932C24.4267 23.4937 24.4261 23.4941 24.4255 23.4945C24.4248 23.4949 24.4242 23.4954 24.4236 23.4958C24.4229 23.4962 24.4223 23.4966 24.4216 23.4971C24.421 23.4975 24.4204 23.4979 24.4197 23.4983C24.4191 23.4988 24.4184 23.4992 24.4178 23.4996C24.4171 23.5001 24.4165 23.5005 24.4158 23.5009C24.4152 23.5014 24.4145 23.5018 24.4139 23.5022C24.4132 23.5027 24.4126 23.5031 24.4119 23.5035C24.4113 23.504 24.4106 23.5044 24.41 23.5048C24.4093 23.5053 24.4087 23.5057 24.408 23.5062C24.4073 23.5066 24.4067 23.507 24.406 23.5075C24.4054 23.5079 24.4047 23.5084 24.404 23.5088C24.4034 23.5092 24.4027 23.5097 24.402 23.5101C24.4014 23.5106 24.4007 23.511 24.4 23.5115C24.3994 23.5119 24.3987 23.5124 24.398 23.5128C24.3973 23.5133 24.3967 23.5137 24.396 23.5142C24.3953 23.5146 24.3946 23.5151 24.394 23.5155C24.3933 23.516 24.3926 23.5164 24.3919 23.5169C24.3912 23.5173 24.3905 23.5178 24.3899 23.5182C24.3892 23.5187 24.3885 23.5192 24.3878 23.5196C24.3871 23.5201 24.3864 23.5205 24.3857 23.521C24.3851 23.5214 24.3844 23.5219 24.3837 23.5224C24.383 23.5228 24.3823 23.5233 24.3816 23.5238C24.3809 23.5242 24.3802 23.5247 24.3795 23.5251C24.3788 23.5256 24.3781 23.5261 24.3774 23.5265C24.3767 23.527 24.376 23.5275 24.3753 23.5279C24.3746 23.5284 24.3739 23.5289 24.3732 23.5294C24.3725 23.5298 24.3718 23.5303 24.3711 23.5308C24.3704 23.5312 24.3696 23.5317 24.3689 23.5322C24.3682 23.5327 24.3675 23.5331 24.3668 23.5336C24.3661 23.5341 24.3654 23.5346 24.3647 23.535C24.3639 23.5355 24.3632 23.536 24.3625 23.5365C24.3618 23.537 24.3611 23.5374 24.3603 23.5379C24.3596 23.5384 24.3589 23.5389 24.3582 23.5394C24.3574 23.5399 24.3567 23.5403 24.356 23.5408C24.3553 23.5413 24.3545 23.5418 24.3538 23.5423C24.3531 23.5428 24.3523 23.5433 24.3516 23.5437C24.3509 23.5442 24.3501 23.5447 24.3494 23.5452C24.3487 23.5457 24.3479 23.5462 24.3472 23.5467C24.3464 23.5472 24.3457 23.5477 24.345 23.5482C24.3442 23.5487 24.3435 23.5492 24.3427 23.5497C24.342 23.5502 24.3412 23.5507 24.3405 23.5512C24.3397 23.5517 24.339 23.5521 24.3383 23.5526C24.3375 23.5531 24.3367 23.5536 24.336 23.5542C24.3352 23.5547 24.3345 23.5552 24.3337 23.5557C24.333 23.5562 24.3322 23.5567 24.3315 23.5572C24.3307 23.5577 24.3299 23.5582 24.3292 23.5587C24.3284 23.5592 24.3277 23.5597 24.3269 23.5602C24.3261 23.5607 24.3254 23.5612 24.3246 23.5617C24.3238 23.5623 24.3231 23.5628 24.3223 23.5633C24.3215 23.5638 24.3208 23.5643 24.32 23.5648C24.3192 23.5653 24.3184 23.5659 24.3177 23.5664C24.3169 23.5669 24.3161 23.5674 24.3153 23.5679C24.3146 23.5684 24.3138 23.569 24.313 23.5695C24.3122 23.57 24.3114 23.5705 24.3107 23.571C24.3099 23.5716 24.3091 23.5721 24.3083 23.5726C24.3075 23.5731 24.3067 23.5737 24.306 23.5742C24.3052 23.5747 24.3044 23.5752 24.3036 23.5758C24.3028 23.5763 24.302 23.5768 24.3012 23.5773C24.3004 23.5779 24.2996 23.5784 24.2988 23.5789C24.298 23.5795 24.2972 23.58 24.2964 23.5805C24.2956 23.5811 24.2948 23.5816 24.294 23.5821C24.2932 23.5827 24.2924 23.5832 24.2916 23.5837C24.2908 23.5843 24.29 23.5848 24.2892 23.5854C24.2884 23.5859 24.2876 23.5864 24.2868 23.587C24.286 23.5875 24.2851 23.5881 24.2843 23.5886C24.2835 23.5891 24.2827 23.5897 24.2819 23.5902C24.2811 23.5908 24.2803 23.5913 24.2794 23.5919C24.2786 23.5924 24.2778 23.5929 24.277 23.5935C24.2762 23.594 24.2753 23.5946 24.2745 23.5951C24.2737 23.5957 24.2729 23.5962 24.272 23.5968C24.2712 23.5973 24.2704 23.5979 24.2696 23.5984C24.2687 23.599 24.2679 23.5996 24.2671 23.6001C24.2662 23.6007 24.2654 23.6012 24.2646 23.6018C24.2637 23.6023 24.2629 23.6029 24.262 23.6034C24.2612 23.604 24.2604 23.6046 24.2595 23.6051C24.2587 23.6057 24.2579 23.6062 24.257 23.6068C24.2562 23.6074 24.2553 23.6079 24.2545 23.6085C24.2536 23.6091 24.2528 23.6096 24.2519 23.6102C24.2511 23.6108 24.2502 23.6113 24.2494 23.6119C24.2485 23.6125 24.2477 23.613 24.2468 23.6136C24.246 23.6142 24.2451 23.6147 24.2443 23.6153C24.2434 23.6159 24.2425 23.6165 24.2417 23.617C24.2408 23.6176 24.24 23.6182 24.2391 23.6188C24.2382 23.6193 24.2374 23.6199 24.2365 23.6205C24.2356 23.6211 24.2348 23.6216 24.2339 23.6222C24.233 23.6228 24.2322 23.6234 24.2313 23.624C24.2304 23.6245 24.2296 23.6251 24.2287 23.6257C24.2278 23.6263 24.2269 23.6269 24.2261 23.6274C24.2252 23.628 24.2243 23.6286 24.2234 23.6292C24.2225 23.6298 24.2217 23.6304 24.2208 23.631C24.2199 23.6315 24.219 23.6321 24.2181 23.6327C24.2173 23.6333 24.2164 23.6339 24.2155 23.6345C24.2146 23.6351 24.2137 23.6357 24.2128 23.6363C24.2119 23.6369 24.211 23.6375 24.2101 23.6381C24.2092 23.6387 24.2084 23.6392 24.2075 23.6398C24.2066 23.6404 24.2057 23.641 24.2048 23.6416C24.2039 23.6422 24.203 23.6428 24.2021 23.6434C24.2012 23.644 24.2003 23.6446 24.1994 23.6452C24.1985 23.6458 24.1976 23.6464 24.1966 23.6471C24.1957 23.6477 24.1948 23.6483 24.1939 23.6489C24.193 23.6495 24.1921 23.6501 24.1912 23.6507C24.1903 23.6513 24.1894 23.6519 24.1885 23.6525C24.1875 23.6531 24.1866 23.6537 24.1857 23.6543C24.1848 23.655 24.1839 23.6556 24.1829 23.6562C24.182 23.6568 24.1811 23.6574 24.1802 23.658C24.1793 23.6586 24.1783 23.6593 24.1774 23.6599C24.1765 23.6605 24.1756 23.6611 24.1746 23.6617C24.1737 23.6623 24.1728 23.663 24.1718 23.6636C24.1709 23.6642 24.17 23.6648 24.169 23.6655C24.1681 23.6661 24.1672 23.6667 24.1662 23.6673C24.1653 23.6679 24.1644 23.6686 24.1634 23.6692C24.1625 23.6698 24.1615 23.6705 24.1606 23.6711C24.1597 23.6717 24.1587 23.6723 24.1578 23.673C24.1568 23.6736 24.1559 23.6742 24.1549 23.6749C24.154 23.6755 24.153 23.6761 24.1521 23.6768C24.1511 23.6774 24.1502 23.678 24.1492 23.6787C24.1483 23.6793 24.1473 23.6799 24.1464 23.6806C24.1454 23.6812 24.1445 23.6818 24.1435 23.6825C24.1425 23.6831 24.1416 23.6838 24.1406 23.6844C24.1397 23.685 24.1387 23.6857 24.1377 23.6863C24.1368 23.687 24.1358 23.6876 24.1348 23.6883C24.1339 23.6889 24.1329 23.6896 24.1319 23.6902C24.131 23.6908 24.13 23.6915 24.129 23.6921C24.128 23.6928 24.1271 23.6934 24.1261 23.6941C24.1251 23.6947 24.1241 23.6954 24.1232 23.696C24.1222 23.6967 24.1212 23.6973 24.1202 23.698C24.1192 23.6987 24.1183 23.6993 24.1173 23.7C24.1163 23.7006 24.1153 23.7013 24.1143 23.7019C24.1133 23.7026 24.1124 23.7032 24.1114 23.7039C24.1104 23.7046 24.1094 23.7052 24.1084 23.7059C24.1074 23.7065 24.1064 23.7072 24.1054 23.7079C24.1044 23.7085 24.1034 23.7092 24.1024 23.7099C24.1014 23.7105 24.1004 23.7112 24.0994 23.7119C24.0984 23.7125 24.0974 23.7132 24.0964 23.7139C24.0954 23.7145 24.0944 23.7152 24.0934 23.7159C24.0924 23.7165 24.0914 23.7172 24.0904 23.7179C24.0894 23.7186 24.0884 23.7192 24.0874 23.7199C24.0864 23.7206 24.0853 23.7213 24.0843 23.7219C24.0833 23.7226 24.0823 23.7233 24.0813 23.724C24.0803 23.7246 24.0793 23.7253 24.0782 23.726C24.0772 23.7267 24.0762 23.7274 24.0752 23.728C24.0742 23.7287 24.0731 23.7294 24.0721 23.7301C24.0711 23.7308 24.0701 23.7314 24.069 23.7321C24.068 23.7328 24.067 23.7335 24.0659 23.7342C24.0649 23.7349 24.0639 23.7356 24.0628 23.7362C24.0618 23.7369 24.0608 23.7376 24.0597 23.7383C24.0587 23.739 24.0577 23.7397 24.0566 23.7404C24.0556 23.7411 24.0546 23.7418 24.0535 23.7425C24.0525 23.7432 24.0514 23.7439 24.0504 23.7446C24.0493 23.7453 24.0483 23.7459 24.0473 23.7466C24.0462 23.7473 24.0452 23.748 24.0441 23.7487C24.0431 23.7494 24.042 23.7501 24.041 23.7508C24.0399 23.7515 24.0389 23.7522 24.0378 23.7529C24.0367 23.7537 24.0357 23.7544 24.0346 23.7551C24.0336 23.7558 24.0325 23.7565 24.0315 23.7572C24.0304 23.7579 24.0293 23.7586 24.0283 23.7593C24.0272 23.76 24.0261 23.7607 24.0251 23.7614C24.024 23.7621 24.0229 23.7629 24.0219 23.7636C24.0208 23.7643 24.0197 23.765 24.0187 23.7657C24.0176 23.7664 24.0165 23.7671 24.0155 23.7678C24.0144 23.7686 24.0133 23.7693 24.0122 23.77C24.0111 23.7707 24.0101 23.7714 24.009 23.7722C24.0079 23.7729 24.0068 23.7736 24.0057 23.7743C24.0047 23.775 24.0036 23.7758 24.0025 23.7765C24.0014 23.7772 24.0003 23.7779 23.9992 23.7787C23.9982 23.7794 23.9971 23.7801 23.996 23.7808C23.9949 23.7816 23.9938 23.7823 23.9927 23.783C23.9916 23.7837 23.9905 23.7845 23.9894 23.7852C23.9883 23.7859 23.9872 23.7867 23.9861 23.7874C23.985 23.7881 23.9839 23.7889 23.9828 23.7896C23.9817 23.7903 23.9806 23.7911 23.9795 23.7918C23.9784 23.7925 23.9773 23.7933 23.9762 23.794C23.9751 23.7948 23.974 23.7955 23.9729 23.7962C23.9718 23.797 23.9707 23.7977 23.9695 23.7985C23.9684 23.7992 23.9673 23.7999 23.9662 23.8007C23.9651 23.8014 23.964 23.8022 23.9628 23.8029C23.9617 23.8037 23.9606 23.8044 23.9595 23.8052C23.9584 23.8059 23.9572 23.8067 23.9561 23.8074C23.955 23.8081 23.9539 23.8089 23.9528 23.8096C23.9516 23.8104 23.9505 23.8112 23.9494 23.8119C23.9482 23.8127 23.9471 23.8134 23.946 23.8142C23.9448 23.8149 23.9437 23.8157 23.9426 23.8164C23.9414 23.8172 23.9403 23.8179 23.9392 23.8187C23.938 23.8195 23.9369 23.8202 23.9358 23.821C23.9346 23.8217 23.9335 23.8225 23.9323 23.8233C23.9312 23.824 23.93 23.8248 23.9289 23.8255C23.9278 23.8263 23.9266 23.8271 23.9255 23.8278C23.9243 23.8286 23.9232 23.8294 23.922 23.8301C23.9209 23.8309 23.9197 23.8317 23.9186 23.8324C23.9174 23.8332 23.9162 23.834 23.9151 23.8348C23.9139 23.8355 23.9128 23.8363 23.9116 23.8371C23.9105 23.8378 23.9093 23.8386 23.9081 23.8394C23.907 23.8402 23.9058 23.8409 23.9046 23.8417C23.9035 23.8425 23.9023 23.8433 23.9011 23.8441C23.9 23.8448 23.8988 23.8456 23.8976 23.8464C23.8965 23.8472 23.8953 23.8479 23.8941 23.8487C23.893 23.8495 23.8918 23.8503 23.8906 23.8511C23.8894 23.8519 23.8883 23.8526 23.8871 23.8534C23.8859 23.8542 23.8847 23.855 23.8835 23.8558C23.8824 23.8566 23.8812 23.8574 23.88 23.8582C23.8788 23.8589 23.8776 23.8597 23.8764 23.8605C23.8752 23.8613 23.8741 23.8621 23.8729 23.8629C23.8717 23.8637 23.8705 23.8645 23.8693 23.8653C23.8681 23.8661 23.8669 23.8669 23.8657 23.8677C23.8645 23.8685 23.8633 23.8693 23.8621 23.8701C23.8609 23.8709 23.8597 23.8717 23.8585 23.8725C23.8573 23.8733 23.8561 23.8741 23.8549 23.8749C23.8537 23.8757 23.8525 23.8765 23.8513 23.8773C23.8501 23.8781 23.8489 23.8789 23.8477 23.8797C23.8465 23.8805 23.8453 23.8813 23.8441 23.8821C23.8429 23.8829 23.8416 23.8837 23.8404 23.8845C23.8392 23.8853 23.838 23.8862 23.8368 23.887C23.8356 23.8878 23.8343 23.8886 23.8331 23.8894C23.8319 23.8902 23.8307 23.891 23.8295 23.8918C23.8282 23.8927 23.827 23.8935 23.8258 23.8943C23.8246 23.8951 23.8233 23.8959 23.8221 23.8967C23.8209 23.8976 23.8197 23.8984 23.8184 23.8992C23.8172 23.9 23.816 23.9008 23.8147 23.9017C23.8135 23.9025 23.8123 23.9033 23.811 23.9041C23.8098 23.905 23.8086 23.9058 23.8073 23.9066C23.8061 23.9074 23.8048 23.9083 23.8036 23.9091C23.8024 23.9099 23.8011 23.9107 23.7999 23.9116C23.7986 23.9124 23.7974 23.9132 23.7961 23.9141C23.7949 23.9149 23.7936 23.9157 23.7924 23.9166C23.7911 23.9174 23.7899 23.9182 23.7886 23.9191C23.7874 23.9199 23.7861 23.9207 23.7849 23.9216C23.7836 23.9224 23.7824 23.9232 23.7811 23.9241C23.7798 23.9249 23.7786 23.9258 23.7773 23.9266C23.7761 23.9274 23.7748 23.9283 23.7735 23.9291C23.7723 23.93 23.771 23.9308 23.7697 23.9317C23.7685 23.9325 23.7672 23.9333 23.7659 23.9342C23.7647 23.935 23.7634 23.9359 23.7621 23.9367C23.7609 23.9376 23.7596 23.9384 23.7583 23.9393C23.757 23.9401 23.7558 23.941 23.7545 23.9418C23.7532 23.9427 23.7519 23.9435 23.7506 23.9444C23.7494 23.9452 23.7481 23.9461 23.7468 23.9469C23.7455 23.9478 23.7442 23.9487 23.7429 23.9495C23.7417 23.9504 23.7404 23.9512 23.7391 23.9521C23.7378 23.9529 23.7365 23.9538 23.7352 23.9547C23.7339 23.9555 23.7326 23.9564 23.7313 23.9573C23.7301 23.9581 23.7288 23.959 23.7275 23.9598C23.7262 23.9607 23.7249 23.9616 23.7236 23.9624C23.7223 23.9633 23.721 23.9642 23.7197 23.965C23.7184 23.9659 23.7171 23.9668 23.7158 23.9676C23.7144 23.9685 23.7131 23.9694 23.7118 23.9703C23.7105 23.9711 23.7092 23.972 23.7079 23.9729C23.7066 23.9737 23.7053 23.9746 23.704 23.9755C23.7027 23.9764 23.7013 23.9773 23.7 23.9781C23.6987 23.979 23.6974 23.9799 23.6961 23.9808C23.6948 23.9816 23.6934 23.9825 23.6921 23.9834C23.6908 23.9843 23.6895 23.9852 23.6882 23.986C23.6868 23.9869 23.6855 23.9878 23.6842 23.9887C23.6829 23.9896 23.6815 23.9905 23.6802 23.9914C23.6789 23.9922 23.6775 23.9931 23.6762 23.994C23.6749 23.9949 23.6735 23.9958 23.6722 23.9967C23.6709 23.9976 23.6695 23.9985 23.6682 23.9994C23.6669 24.0002 23.6655 24.0011 23.6642 24.002C23.6628 24.0029 23.6615 24.0038 23.6602 24.0047C23.6588 24.0056 23.6575 24.0065 23.6561 24.0074C23.6548 24.0083 23.6534 24.0092 23.6521 24.0101C23.6507 24.011 23.6494 24.0119 23.648 24.0128C23.6467 24.0137 23.6453 24.0146 23.644 24.0155C23.6426 24.0164 23.6413 24.0173 23.6399 24.0182C23.6385 24.0191 23.6372 24.02 23.6358 24.0209C23.6345 24.0218 23.6331 24.0227 23.6317 24.0237C23.6304 24.0246 23.629 24.0255 23.6277 24.0264C23.6263 24.0273 23.6249 24.0282 23.6236 24.0291C23.6222 24.03 23.6208 24.0309 23.6194 24.0319C23.6181 24.0328 23.6167 24.0337 23.6153 24.0346C23.614 24.0355 23.6126 24.0364 23.6112 24.0373C23.6098 24.0383 23.6085 24.0392 23.6071 24.0401C23.6057 24.041 23.6043 24.0419 23.6029 24.0429C23.6016 24.0438 23.6002 24.0447 23.5988 24.0456C23.5974 24.0465 23.596 24.0475 23.5946 24.0484C23.5932 24.0493 23.5919 24.0502 23.5905 24.0512C23.5891 24.0521 23.5877 24.053 23.5863 24.054C23.5849 24.0549 23.5835 24.0558 23.5821 24.0567C23.5807 24.0577 23.5793 24.0586 23.5779 24.0595C23.5765 24.0605 23.5751 24.0614 23.5737 24.0623C23.5723 24.0633 23.5709 24.0642 23.5695 24.0651C23.5681 24.0661 23.5667 24.067 23.5653 24.0679L24.6747 25.732C24.6761 25.7311 24.6775 25.7302 24.6789 25.7292C24.6803 25.7283 24.6817 25.7274 24.6831 25.7264C24.6845 25.7255 24.6859 25.7246 24.6873 25.7236C24.6887 25.7227 24.6901 25.7218 24.6915 25.7208C24.6929 25.7199 24.6943 25.719 24.6957 25.7181C24.6971 25.7171 24.6985 25.7162 24.6999 25.7153C24.7013 25.7143 24.7026 25.7134 24.704 25.7125C24.7054 25.7116 24.7068 25.7106 24.7082 25.7097C24.7096 25.7088 24.711 25.7079 24.7123 25.707C24.7137 25.706 24.7151 25.7051 24.7165 25.7042C24.7179 25.7033 24.7192 25.7024 24.7206 25.7014C24.722 25.7005 24.7234 25.6996 24.7247 25.6987C24.7261 25.6978 24.7275 25.6969 24.7288 25.696C24.7302 25.695 24.7316 25.6941 24.733 25.6932C24.7343 25.6923 24.7357 25.6914 24.7371 25.6905C24.7384 25.6896 24.7398 25.6887 24.7411 25.6878C24.7425 25.6868 24.7439 25.6859 24.7452 25.685C24.7466 25.6841 24.7479 25.6832 24.7493 25.6823C24.7507 25.6814 24.752 25.6805 24.7534 25.6796C24.7547 25.6787 24.7561 25.6778 24.7574 25.6769C24.7588 25.676 24.7601 25.6751 24.7615 25.6742C24.7628 25.6733 24.7642 25.6724 24.7655 25.6715C24.7669 25.6706 24.7682 25.6697 24.7696 25.6688C24.7709 25.6679 24.7722 25.667 24.7736 25.6661C24.7749 25.6652 24.7763 25.6643 24.7776 25.6635C24.7789 25.6626 24.7803 25.6617 24.7816 25.6608C24.7829 25.6599 24.7843 25.659 24.7856 25.6581C24.7869 25.6572 24.7883 25.6563 24.7896 25.6555C24.7909 25.6546 24.7923 25.6537 24.7936 25.6528C24.7949 25.6519 24.7962 25.651 24.7976 25.6501C24.7989 25.6493 24.8002 25.6484 24.8015 25.6475C24.8028 25.6466 24.8042 25.6457 24.8055 25.6449C24.8068 25.644 24.8081 25.6431 24.8094 25.6422C24.8107 25.6414 24.8121 25.6405 24.8134 25.6396C24.8147 25.6387 24.816 25.6379 24.8173 25.637C24.8186 25.6361 24.8199 25.6352 24.8212 25.6344C24.8225 25.6335 24.8238 25.6326 24.8252 25.6317C24.8265 25.6309 24.8278 25.63 24.8291 25.6291C24.8304 25.6283 24.8317 25.6274 24.833 25.6265C24.8343 25.6257 24.8356 25.6248 24.8369 25.6239C24.8382 25.6231 24.8395 25.6222 24.8407 25.6214C24.842 25.6205 24.8433 25.6196 24.8446 25.6188C24.8459 25.6179 24.8472 25.617 24.8485 25.6162C24.8498 25.6153 24.8511 25.6145 24.8523 25.6136C24.8536 25.6128 24.8549 25.6119 24.8562 25.611C24.8575 25.6102 24.8588 25.6093 24.86 25.6085C24.8613 25.6076 24.8626 25.6068 24.8639 25.6059C24.8652 25.6051 24.8664 25.6042 24.8677 25.6034C24.869 25.6025 24.8703 25.6017 24.8715 25.6008C24.8728 25.6 24.8741 25.5991 24.8753 25.5983C24.8766 25.5974 24.8779 25.5966 24.8791 25.5958C24.8804 25.5949 24.8817 25.5941 24.8829 25.5932C24.8842 25.5924 24.8855 25.5915 24.8867 25.5907C24.888 25.5899 24.8892 25.589 24.8905 25.5882C24.8918 25.5873 24.893 25.5865 24.8943 25.5857C24.8955 25.5848 24.8968 25.584 24.898 25.5832C24.8993 25.5823 24.9005 25.5815 24.9018 25.5807C24.903 25.5798 24.9043 25.579 24.9055 25.5782C24.9068 25.5773 24.908 25.5765 24.9093 25.5757C24.9105 25.5748 24.9118 25.574 24.913 25.5732C24.9142 25.5724 24.9155 25.5715 24.9167 25.5707C24.918 25.5699 24.9192 25.5691 24.9204 25.5682C24.9217 25.5674 24.9229 25.5666 24.9241 25.5658C24.9254 25.5649 24.9266 25.5641 24.9278 25.5633C24.9291 25.5625 24.9303 25.5617 24.9315 25.5608C24.9327 25.56 24.934 25.5592 24.9352 25.5584C24.9364 25.5576 24.9376 25.5568 24.9389 25.5559C24.9401 25.5551 24.9413 25.5543 24.9425 25.5535C24.9437 25.5527 24.945 25.5519 24.9462 25.5511C24.9474 25.5503 24.9486 25.5494 24.9498 25.5486C24.951 25.5478 24.9523 25.547 24.9535 25.5462C24.9547 25.5454 24.9559 25.5446 24.9571 25.5438C24.9583 25.543 24.9595 25.5422 24.9607 25.5414C24.9619 25.5406 24.9631 25.5398 24.9643 25.539C24.9655 25.5382 24.9667 25.5374 24.9679 25.5366C24.9691 25.5358 24.9703 25.535 24.9715 25.5342C24.9727 25.5334 24.9739 25.5326 24.9751 25.5318C24.9763 25.531 24.9775 25.5302 24.9787 25.5294C24.9799 25.5286 24.9811 25.5278 24.9823 25.527C24.9835 25.5262 24.9846 25.5254 24.9858 25.5246C24.987 25.5238 24.9882 25.523 24.9894 25.5223C24.9906 25.5215 24.9918 25.5207 24.9929 25.5199C24.9941 25.5191 24.9953 25.5183 24.9965 25.5175C24.9977 25.5167 24.9988 25.516 25 25.5152C25.0012 25.5144 25.0024 25.5136 25.0035 25.5128C25.0047 25.512 25.0059 25.5113 25.007 25.5105C25.0082 25.5097 25.0094 25.5089 25.0105 25.5082C25.0117 25.5074 25.0129 25.5066 25.014 25.5058C25.0152 25.505 25.0164 25.5043 25.0175 25.5035C25.0187 25.5027 25.0199 25.5019 25.021 25.5012C25.0222 25.5004 25.0233 25.4996 25.0245 25.4989C25.0256 25.4981 25.0268 25.4973 25.028 25.4965C25.0291 25.4958 25.0303 25.495 25.0314 25.4942C25.0326 25.4935 25.0337 25.4927 25.0349 25.4919C25.036 25.4912 25.0372 25.4904 25.0383 25.4897C25.0394 25.4889 25.0406 25.4881 25.0417 25.4874C25.0429 25.4866 25.044 25.4858 25.0452 25.4851C25.0463 25.4843 25.0474 25.4836 25.0486 25.4828C25.0497 25.482 25.0508 25.4813 25.052 25.4805C25.0531 25.4798 25.0542 25.479 25.0554 25.4783C25.0565 25.4775 25.0576 25.4768 25.0588 25.476C25.0599 25.4753 25.061 25.4745 25.0621 25.4738C25.0633 25.473 25.0644 25.4722 25.0655 25.4715C25.0666 25.4708 25.0678 25.47 25.0689 25.4693C25.07 25.4685 25.0711 25.4678 25.0722 25.467C25.0734 25.4663 25.0745 25.4655 25.0756 25.4648C25.0767 25.464 25.0778 25.4633 25.0789 25.4626C25.0801 25.4618 25.0812 25.4611 25.0823 25.4603C25.0834 25.4596 25.0845 25.4589 25.0856 25.4581C25.0867 25.4574 25.0878 25.4566 25.0889 25.4559C25.09 25.4552 25.0911 25.4544 25.0922 25.4537C25.0933 25.453 25.0944 25.4522 25.0955 25.4515C25.0966 25.4508 25.0977 25.45 25.0988 25.4493C25.0999 25.4486 25.101 25.4478 25.1021 25.4471C25.1032 25.4464 25.1043 25.4457 25.1054 25.4449C25.1065 25.4442 25.1076 25.4435 25.1086 25.4428C25.1097 25.442 25.1108 25.4413 25.1119 25.4406C25.113 25.4399 25.1141 25.4391 25.1151 25.4384C25.1162 25.4377 25.1173 25.437 25.1184 25.4363C25.1195 25.4355 25.1205 25.4348 25.1216 25.4341C25.1227 25.4334 25.1238 25.4327 25.1249 25.4319C25.1259 25.4312 25.127 25.4305 25.1281 25.4298C25.1291 25.4291 25.1302 25.4284 25.1313 25.4277C25.1323 25.427 25.1334 25.4262 25.1345 25.4255C25.1355 25.4248 25.1366 25.4241 25.1377 25.4234C25.1387 25.4227 25.1398 25.422 25.1409 25.4213C25.1419 25.4206 25.143 25.4199 25.144 25.4192C25.1451 25.4185 25.1461 25.4178 25.1472 25.417C25.1483 25.4163 25.1493 25.4156 25.1504 25.4149C25.1514 25.4142 25.1525 25.4135 25.1535 25.4128C25.1546 25.4121 25.1556 25.4114 25.1567 25.4107C25.1577 25.41 25.1587 25.4094 25.1598 25.4087C25.1608 25.408 25.1619 25.4073 25.1629 25.4066C25.164 25.4059 25.165 25.4052 25.166 25.4045C25.1671 25.4038 25.1681 25.4031 25.1691 25.4024C25.1702 25.4017 25.1712 25.401 25.1722 25.4004C25.1733 25.3997 25.1743 25.399 25.1753 25.3983C25.1764 25.3976 25.1774 25.3969 25.1784 25.3962C25.1795 25.3955 25.1805 25.3949 25.1815 25.3942C25.1825 25.3935 25.1836 25.3928 25.1846 25.3921C25.1856 25.3915 25.1866 25.3908 25.1876 25.3901C25.1887 25.3894 25.1897 25.3887 25.1907 25.3881C25.1917 25.3874 25.1927 25.3867 25.1937 25.386C25.1947 25.3854 25.1958 25.3847 25.1968 25.384C25.1978 25.3833 25.1988 25.3827 25.1998 25.382C25.2008 25.3813 25.2018 25.3806 25.2028 25.38C25.2038 25.3793 25.2048 25.3786 25.2058 25.378C25.2068 25.3773 25.2078 25.3766 25.2088 25.376C25.2098 25.3753 25.2108 25.3746 25.2118 25.374C25.2128 25.3733 25.2138 25.3726 25.2148 25.372C25.2158 25.3713 25.2168 25.3706 25.2178 25.37C25.2188 25.3693 25.2198 25.3687 25.2208 25.368C25.2218 25.3673 25.2227 25.3667 25.2237 25.366C25.2247 25.3654 25.2257 25.3647 25.2267 25.3641C25.2277 25.3634 25.2286 25.3628 25.2296 25.3621C25.2306 25.3614 25.2316 25.3608 25.2326 25.3601C25.2335 25.3595 25.2345 25.3588 25.2355 25.3582C25.2365 25.3575 25.2374 25.3569 25.2384 25.3562C25.2394 25.3556 25.2404 25.3549 25.2413 25.3543C25.2423 25.3537 25.2433 25.353 25.2442 25.3524C25.2452 25.3517 25.2462 25.3511 25.2471 25.3504C25.2481 25.3498 25.2491 25.3491 25.25 25.3485C25.251 25.3479 25.2519 25.3472 25.2529 25.3466C25.2539 25.3459 25.2548 25.3453 25.2558 25.3447C25.2567 25.344 25.2577 25.3434 25.2586 25.3428C25.2596 25.3421 25.2605 25.3415 25.2615 25.3409C25.2624 25.3402 25.2634 25.3396 25.2643 25.339C25.2653 25.3383 25.2662 25.3377 25.2672 25.3371C25.2681 25.3364 25.2691 25.3358 25.27 25.3352C25.2709 25.3346 25.2719 25.3339 25.2728 25.3333C25.2738 25.3327 25.2747 25.332 25.2756 25.3314C25.2766 25.3308 25.2775 25.3302 25.2784 25.3296C25.2794 25.3289 25.2803 25.3283 25.2812 25.3277C25.2822 25.3271 25.2831 25.3264 25.284 25.3258C25.285 25.3252 25.2859 25.3246 25.2868 25.324C25.2877 25.3234 25.2887 25.3227 25.2896 25.3221C25.2905 25.3215 25.2914 25.3209 25.2923 25.3203C25.2933 25.3197 25.2942 25.3191 25.2951 25.3184C25.296 25.3178 25.2969 25.3172 25.2979 25.3166C25.2988 25.316 25.2997 25.3154 25.3006 25.3148C25.3015 25.3142 25.3024 25.3136 25.3033 25.313C25.3042 25.3124 25.3051 25.3118 25.306 25.3112C25.307 25.3105 25.3079 25.3099 25.3088 25.3093C25.3097 25.3087 25.3106 25.3081 25.3115 25.3075C25.3124 25.3069 25.3133 25.3063 25.3142 25.3057C25.3151 25.3051 25.316 25.3045 25.3169 25.3039C25.3178 25.3033 25.3186 25.3028 25.3195 25.3022C25.3204 25.3016 25.3213 25.301 25.3222 25.3004C25.3231 25.2998 25.324 25.2992 25.3249 25.2986C25.3258 25.298 25.3267 25.2974 25.3275 25.2968C25.3284 25.2962 25.3293 25.2956 25.3302 25.2951C25.3311 25.2945 25.3319 25.2939 25.3328 25.2933C25.3337 25.2927 25.3346 25.2921 25.3355 25.2915C25.3363 25.291 25.3372 25.2904 25.3381 25.2898C25.339 25.2892 25.3398 25.2886 25.3407 25.2881C25.3416 25.2875 25.3424 25.2869 25.3433 25.2863C25.3442 25.2857 25.345 25.2852 25.3459 25.2846C25.3468 25.284 25.3476 25.2834 25.3485 25.2829C25.3494 25.2823 25.3502 25.2817 25.3511 25.2811C25.3519 25.2806 25.3528 25.28 25.3537 25.2794C25.3545 25.2788 25.3554 25.2783 25.3562 25.2777C25.3571 25.2771 25.3579 25.2766 25.3588 25.276C25.3596 25.2754 25.3605 25.2749 25.3613 25.2743C25.3622 25.2737 25.363 25.2732 25.3639 25.2726C25.3647 25.272 25.3656 25.2715 25.3664 25.2709C25.3673 25.2704 25.3681 25.2698 25.3689 25.2692C25.3698 25.2687 25.3706 25.2681 25.3714 25.2676C25.3723 25.267 25.3731 25.2664 25.374 25.2659C25.3748 25.2653 25.3756 25.2648 25.3765 25.2642C25.3773 25.2637 25.3781 25.2631 25.379 25.2625C25.3798 25.262 25.3806 25.2614 25.3814 25.2609C25.3823 25.2603 25.3831 25.2598 25.3839 25.2592C25.3847 25.2587 25.3856 25.2581 25.3864 25.2576C25.3872 25.257 25.388 25.2565 25.3888 25.256C25.3897 25.2554 25.3905 25.2549 25.3913 25.2543C25.3921 25.2538 25.3929 25.2532 25.3937 25.2527C25.3945 25.2522 25.3954 25.2516 25.3962 25.2511C25.397 25.2505 25.3978 25.25 25.3986 25.2495C25.3994 25.2489 25.4002 25.2484 25.401 25.2478C25.4018 25.2473 25.4026 25.2468 25.4034 25.2462C25.4042 25.2457 25.405 25.2452 25.4058 25.2446C25.4066 25.2441 25.4074 25.2436 25.4082 25.243C25.409 25.2425 25.4098 25.242 25.4106 25.2414C25.4114 25.2409 25.4122 25.2404 25.413 25.2399C25.4138 25.2393 25.4146 25.2388 25.4154 25.2383C25.4161 25.2378 25.4169 25.2372 25.4177 25.2367C25.4185 25.2362 25.4193 25.2357 25.4201 25.2351C25.4208 25.2346 25.4216 25.2341 25.4224 25.2336C25.4232 25.2331 25.424 25.2325 25.4247 25.232C25.4255 25.2315 25.4263 25.231 25.4271 25.2305C25.4278 25.23 25.4286 25.2294 25.4294 25.2289C25.4302 25.2284 25.4309 25.2279 25.4317 25.2274C25.4325 25.2269 25.4332 25.2264 25.434 25.2258C25.4348 25.2253 25.4355 25.2248 25.4363 25.2243C25.4371 25.2238 25.4378 25.2233 25.4386 25.2228C25.4393 25.2223 25.4401 25.2218 25.4409 25.2213C25.4416 25.2208 25.4424 25.2203 25.4431 25.2198C25.4439 25.2193 25.4446 25.2188 25.4454 25.2183C25.4461 25.2178 25.4469 25.2172 25.4477 25.2167C25.4484 25.2163 25.4491 25.2158 25.4499 25.2153C25.4506 25.2148 25.4514 25.2143 25.4521 25.2138C25.4529 25.2133 25.4536 25.2128 25.4544 25.2123C25.4551 25.2118 25.4558 25.2113 25.4566 25.2108C25.4573 25.2103 25.4581 25.2098 25.4588 25.2093C25.4595 25.2088 25.4603 25.2083 25.461 25.2079C25.4617 25.2074 25.4625 25.2069 25.4632 25.2064C25.4639 25.2059 25.4647 25.2054 25.4654 25.2049C25.4661 25.2044 25.4668 25.204 25.4676 25.2035C25.4683 25.203 25.469 25.2025 25.4697 25.202C25.4705 25.2015 25.4712 25.2011 25.4719 25.2006C25.4726 25.2001 25.4733 25.1996 25.4741 25.1991C25.4748 25.1987 25.4755 25.1982 25.4762 25.1977C25.4769 25.1972 25.4776 25.1968 25.4783 25.1963C25.479 25.1958 25.4798 25.1953 25.4805 25.1949C25.4812 25.1944 25.4819 25.1939 25.4826 25.1935C25.4833 25.193 25.484 25.1925 25.4847 25.192C25.4854 25.1916 25.4861 25.1911 25.4868 25.1906C25.4875 25.1902 25.4882 25.1897 25.4889 25.1892C25.4896 25.1888 25.4903 25.1883 25.491 25.1879C25.4917 25.1874 25.4924 25.1869 25.4931 25.1865C25.4938 25.186 25.4945 25.1855 25.4951 25.1851C25.4958 25.1846 25.4965 25.1842 25.4972 25.1837C25.4979 25.1833 25.4986 25.1828 25.4993 25.1823C25.4999 25.1819 25.5006 25.1814 25.5013 25.181C25.502 25.1805 25.5027 25.1801 25.5034 25.1796C25.504 25.1792 25.5047 25.1787 25.5054 25.1783C25.5061 25.1778 25.5067 25.1774 25.5074 25.1769C25.5081 25.1765 25.5087 25.176 25.5094 25.1756C25.5101 25.1751 25.5108 25.1747 25.5114 25.1742C25.5121 25.1738 25.5128 25.1733 25.5134 25.1729C25.5141 25.1725 25.5148 25.172 25.5154 25.1716C25.5161 25.1711 25.5167 25.1707 25.5174 25.1703C25.5181 25.1698 25.5187 25.1694 25.5194 25.1689C25.52 25.1685 25.5207 25.1681 25.5213 25.1676C25.522 25.1672 25.5226 25.1668 25.5233 25.1663C25.5239 25.1659 25.5246 25.1655 25.5252 25.165C25.5259 25.1646 25.5265 25.1642 25.5272 25.1637C25.5278 25.1633 25.5285 25.1629 25.5291 25.1624C25.5298 25.162 25.5304 25.1616 25.531 25.1612C25.5317 25.1607 25.5323 25.1603 25.533 25.1599C25.5336 25.1595 25.5342 25.159 25.5349 25.1586C25.5355 25.1582 25.5361 25.1578 25.5368 25.1573C25.5374 25.1569 25.538 25.1565 25.5387 25.1561C25.5393 25.1557 25.5399 25.1552 25.5405 25.1548C25.5412 25.1544 25.5418 25.154 25.5424 25.1536C25.543 25.1532 25.5437 25.1527 25.5443 25.1523C25.5449 25.1519 25.5455 25.1515 25.5461 25.1511C25.5468 25.1507 25.5474 25.1503 25.548 25.1499C25.5486 25.1495 25.5492 25.149 25.5498 25.1486C25.5504 25.1482 25.551 25.1478 25.5517 25.1474C25.5523 25.147 25.5529 25.1466 25.5535 25.1462C25.5541 25.1458 25.5547 25.1454 25.5553 25.145C25.5559 25.1446 25.5565 25.1442 25.5571 25.1438C25.5577 25.1434 25.5583 25.143 25.5589 25.1426C25.5595 25.1422 25.5601 25.1418 25.5607 25.1414C25.5613 25.141 25.5619 25.1406 25.5625 25.1402C25.5631 25.1398 25.5637 25.1394 25.5643 25.139C25.5649 25.1386 25.5654 25.1382 25.566 25.1378C25.5666 25.1374 25.5672 25.137 25.5678 25.1367C25.5684 25.1363 25.569 25.1359 25.5695 25.1355C25.5701 25.1351 25.5707 25.1347 25.5713 25.1343C25.5719 25.1339 25.5724 25.1336 25.573 25.1332C25.5736 25.1328 25.5742 25.1324 25.5747 25.132C25.5753 25.1316 25.5759 25.1313 25.5765 25.1309C25.577 25.1305 25.5776 25.1301 25.5782 25.1297C25.5787 25.1294 25.5793 25.129 25.5799 25.1286C25.5804 25.1282 25.581 25.1279 25.5816 25.1275C25.5821 25.1271 25.5827 25.1267 25.5832 25.1264C25.5838 25.126 25.5844 25.1256 25.5849 25.1252C25.5855 25.1249 25.586 25.1245 25.5866 25.1241C25.5871 25.1238 25.5877 25.1234 25.5883 25.123C25.5888 25.1226 25.5894 25.1223 25.5899 25.1219C25.5905 25.1215 25.591 25.1212 25.5915 25.1208C25.5921 25.1205 25.5926 25.1201 25.5932 25.1197C25.5937 25.1194 25.5943 25.119 25.5948 25.1186C25.5954 25.1183 25.5959 25.1179 25.5964 25.1176C25.597 25.1172 25.5975 25.1168 25.598 25.1165C25.5986 25.1161 25.5991 25.1158 25.5996 25.1154C25.6002 25.1151 25.6007 25.1147 25.6012 25.1144C25.6018 25.114 25.6023 25.1137 25.6028 25.1133C25.6034 25.1129 25.6039 25.1126 25.6044 25.1122C25.6049 25.1119 25.6055 25.1115 25.606 25.1112C25.6065 25.1109 25.607 25.1105 25.6075 25.1102C25.6081 25.1098 25.6086 25.1095 25.6091 25.1091C25.6096 25.1088 25.6101 25.1084 25.6106 25.1081C25.6111 25.1078 25.6117 25.1074 25.6122 25.1071C25.6127 25.1067 25.6132 25.1064 25.6137 25.1061C25.6142 25.1057 25.6147 25.1054 25.6152 25.105C25.6157 25.1047 25.6162 25.1044 25.6167 25.104C25.6172 25.1037 25.6177 25.1034 25.6182 25.103C25.6187 25.1027 25.6192 25.1024 25.6197 25.102C25.6202 25.1017 25.6207 25.1014 25.6212 25.101C25.6217 25.1007 25.6222 25.1004 25.6227 25.1001C25.6232 25.0997 25.6237 25.0994 25.6242 25.0991C25.6247 25.0987 25.6251 25.0984 25.6256 25.0981C25.6261 25.0978 25.6266 25.0975 25.6271 25.0971C25.6276 25.0968 25.628 25.0965 25.6285 25.0962C25.629 25.0958 25.6295 25.0955 25.63 25.0952C25.6304 25.0949 25.6309 25.0946 25.6314 25.0943C25.6319 25.0939 25.6323 25.0936 25.6328 25.0933C25.6333 25.093 25.6338 25.0927 25.6342 25.0924C25.6347 25.092 25.6352 25.0917 25.6356 25.0914C25.6361 25.0911 25.6366 25.0908 25.637 25.0905C25.6375 25.0902 25.638 25.0899 25.6384 25.0896C25.6389 25.0893 25.6393 25.089 25.6398 25.0886C25.6403 25.0883 25.6407 25.088 25.6412 25.0877C25.6416 25.0874 25.6421 25.0871 25.6425 25.0868C25.643 25.0865 25.6434 25.0862 25.6439 25.0859C25.6443 25.0856 25.6448 25.0853 25.6452 25.085C25.6457 25.0847 25.6461 25.0844 25.6466 25.0841C25.647 25.0838 25.6475 25.0835 25.6479 25.0832C25.6484 25.0829 25.6488 25.0827 25.6492 25.0824C25.6497 25.0821 25.6501 25.0818 25.6505 25.0815C25.651 25.0812 25.6514 25.0809 25.6519 25.0806C25.6523 25.0803 25.6527 25.08 25.6532 25.0798C25.6536 25.0795 25.654 25.0792 25.6544 25.0789C25.6549 25.0786 25.6553 25.0783 25.6557 25.078C25.6561 25.0778 25.6566 25.0775 25.657 25.0772C25.6574 25.0769 25.6578 25.0766 25.6583 25.0763C25.6587 25.0761 25.6591 25.0758 25.6595 25.0755C25.6599 25.0752 25.6603 25.075 25.6608 25.0747C25.6612 25.0744 25.6616 25.0741 25.662 25.0738C25.6624 25.0736 25.6628 25.0733 25.6632 25.073C25.6636 25.0728 25.6641 25.0725 25.6645 25.0722C25.6649 25.0719 25.6653 25.0717 25.6657 25.0714C25.6661 25.0711 25.6665 25.0709 25.6669 25.0706C25.6673 25.0703 25.6677 25.0701 25.6681 25.0698C25.6685 25.0695 25.6689 25.0693 25.6693 25.069C25.6697 25.0687 25.6701 25.0685 25.6705 25.0682C25.6708 25.068 25.6712 25.0677 25.6716 25.0674C25.672 25.0672 25.6724 25.0669 25.6728 25.0667C25.6732 25.0664 25.6736 25.0661 25.674 25.0659C25.6743 25.0656 25.6747 25.0654 25.6751 25.0651C25.6755 25.0649 25.6759 25.0646 25.6762 25.0644C25.6766 25.0641 25.677 25.0639 25.6774 25.0636C25.6778 25.0633 25.6781 25.0631 25.6785 25.0629C25.6789 25.0626 25.6792 25.0624 25.6796 25.0621C25.68 25.0619 25.6804 25.0616 25.6807 25.0614C25.6811 25.0611 25.6815 25.0609 25.6818 25.0606C25.6822 25.0604 25.6826 25.0601 25.6829 25.0599C25.6833 25.0597 25.6836 25.0594 25.684 25.0592C25.6844 25.0589 25.6847 25.0587 25.6851 25.0585C25.6854 25.0582 25.6858 25.058 25.6861 25.0578C25.6865 25.0575 25.6868 25.0573 25.6872 25.057C25.6876 25.0568 25.6879 25.0566 25.6883 25.0563C25.6886 25.0561 25.6889 25.0559 25.6893 25.0557C25.6896 25.0554 25.69 25.0552 25.6903 25.055C25.6907 25.0547 25.691 25.0545 25.6914 25.0543C25.6917 25.0541 25.692 25.0538 25.6924 25.0536C25.6927 25.0534 25.693 25.0532 25.6934 25.0529C25.6937 25.0527 25.694 25.0525 25.6944 25.0523C25.6947 25.052 25.695 25.0518 25.6954 25.0516C25.6957 25.0514 25.696 25.0512 25.6964 25.0509C25.6967 25.0507 25.697 25.0505 25.6973 25.0503C25.6977 25.0501 25.698 25.0499 25.6983 25.0496C25.6986 25.0494 25.6989 25.0492 25.6993 25.049C25.6996 25.0488 25.6999 25.0486 25.7002 25.0484C25.7005 25.0482 25.7008 25.048 25.7012 25.0477C25.7015 25.0475 25.7018 25.0473 25.7021 25.0471C25.7024 25.0469 25.7027 25.0467 25.703 25.0465C25.7033 25.0463 25.7036 25.0461 25.7039 25.0459C25.7042 25.0457 25.7045 25.0455 25.7049 25.0453C25.7052 25.0451 25.7055 25.0449 25.7058 25.0447C25.7061 25.0445 25.7064 25.0443 25.7066 25.0441C25.7069 25.0439 25.7072 25.0437 25.7075 25.0435C25.7078 25.0433 25.7081 25.0431 25.7084 25.0429C25.7087 25.0427 25.709 25.0425 25.7093 25.0423C25.7096 25.0421 25.7099 25.0419 25.7101 25.0418C25.7104 25.0416 25.7107 25.0414 25.711 25.0412C25.7113 25.041 25.7116 25.0408 25.7118 25.0406C25.7121 25.0404 25.7124 25.0403 25.7127 25.0401C25.713 25.0399 25.7132 25.0397 25.7135 25.0395C25.7138 25.0393 25.7141 25.0392 25.7143 25.039C25.7146 25.0388 25.7149 25.0386 25.7151 25.0384C25.7154 25.0382 25.7157 25.0381 25.7159 25.0379C25.7162 25.0377 25.7165 25.0375 25.7167 25.0374C25.717 25.0372 25.7173 25.037 25.7175 25.0368C25.7178 25.0367 25.718 25.0365 25.7183 25.0363C25.7186 25.0361 25.7188 25.036 25.7191 25.0358C25.7193 25.0356 25.7196 25.0355 25.7198 25.0353C25.7201 25.0351 25.7203 25.035 25.7206 25.0348C25.7208 25.0346 25.7211 25.0345 25.7213 25.0343C25.7216 25.0341 25.7218 25.034 25.7221 25.0338C25.7223 25.0336 25.7226 25.0335 25.7228 25.0333C25.723 25.0332 25.7233 25.033 25.7235 25.0328C25.7238 25.0327 25.724 25.0325 25.7242 25.0324C25.7245 25.0322 25.7247 25.032 25.7249 25.0319C25.7252 25.0317 25.7254 25.0316 25.7256 25.0314C25.7259 25.0313 25.7261 25.0311 25.7263 25.031C25.7265 25.0308 25.7268 25.0307 25.727 25.0305C25.7272 25.0304 25.7274 25.0302 25.7277 25.0301C25.7279 25.0299 25.7281 25.0298 25.7283 25.0296C25.7286 25.0295 25.7288 25.0293 25.729 25.0292C25.7292 25.029 25.7294 25.0289 25.7296 25.0288C25.7298 25.0286 25.7301 25.0285 25.7303 25.0283C25.7305 25.0282 25.7307 25.0281 25.7309 25.0279C25.7311 25.0278 25.7313 25.0276 25.7315 25.0275C25.7317 25.0274 25.7319 25.0272 25.7321 25.0271C25.7323 25.027 25.7325 25.0268 25.7327 25.0267C25.7329 25.0266 25.7331 25.0264 25.7333 25.0263C25.7335 25.0262 25.7337 25.026 25.7339 25.0259C25.7341 25.0258 25.7343 25.0256 25.7345 25.0255C25.7347 25.0254 25.7349 25.0253 25.7351 25.0251C25.7353 25.025 25.7355 25.0249 25.7357 25.0248C25.7358 25.0246 25.736 25.0245 25.7362 25.0244C25.7364 25.0243 25.7366 25.0241 25.7368 25.024C25.7369 25.0239 25.7371 25.0238 25.7373 25.0237C25.7375 25.0235 25.7377 25.0234 25.7378 25.0233C25.738 25.0232 25.7382 25.0231 25.7383 25.023C25.7385 25.0228 25.7387 25.0227 25.7389 25.0226C25.739 25.0225 25.7392 25.0224 25.7394 25.0223C25.7395 25.0222 25.7397 25.022 25.7399 25.0219C25.74 25.0218 25.7402 25.0217 25.7404 25.0216C25.7405 25.0215 25.7407 25.0214 25.7408 25.0213C25.741 25.0212 25.7412 25.0211 25.7413 25.021C25.7415 25.0209 25.7416 25.0208 25.7418 25.0207C25.7419 25.0206 25.7421 25.0205 25.7422 25.0204C25.7424 25.0203 25.7425 25.0202 25.7427 25.0201C25.7428 25.02 25.743 25.0199 25.7431 25.0198C25.7433 25.0197 25.7434 25.0196 25.7436 25.0195C25.7437 25.0194 25.7438 25.0193 25.744 25.0192C25.7441 25.0191 25.7443 25.019 25.7444 25.0189C25.7445 25.0188 25.7447 25.0187 25.7448 25.0186C25.7449 25.0186 25.7451 25.0185 25.7452 25.0184C25.7453 25.0183 25.7455 25.0182 25.7456 25.0181C25.7457 25.018 25.7459 25.0179 25.746 25.0179C25.7461 25.0178 25.7462 25.0177 25.7464 25.0176C25.7465 25.0175 25.7466 25.0174 25.7467 25.0174C25.7468 25.0173 25.747 25.0172 25.7471 25.0171C25.7472 25.017 25.7473 25.017 25.7474 25.0169C25.7475 25.0168 25.7477 25.0167 25.7478 25.0167C25.7479 25.0166 25.748 25.0165 25.7481 25.0164C25.7482 25.0164 25.7483 25.0163 25.7484 25.0162C25.7485 25.0162 25.7486 25.0161 25.7488 25.016C25.7489 25.0159 25.749 25.0159 25.7491 25.0158C25.7492 25.0157 25.7493 25.0157 25.7494 25.0156C25.7495 25.0155 25.7496 25.0155 25.7497 25.0154C25.7498 25.0154 25.7498 25.0153 25.7499 25.0152C25.75 25.0152 25.7501 25.0151 25.7502 25.015C25.7503 25.015 25.7504 25.0149 25.7505 25.0149C25.7506 25.0148 25.7507 25.0147 25.7507 25.0147C25.7508 25.0146 25.7509 25.0146 25.751 25.0145C25.7511 25.0145 25.7512 25.0144 25.7512 25.0144C25.7513 25.0143 25.7514 25.0143 25.7515 25.0142C25.7515 25.0142 25.7516 25.0141 25.7517 25.0141C25.7518 25.014 25.7518 25.014 25.7519 25.0139C25.752 25.0139 25.7521 25.0138 25.7521 25.0138C25.7522 25.0137 25.7523 25.0137 25.7523 25.0136C25.7524 25.0136 25.7525 25.0135 25.7525 25.0135C25.7526 25.0135 25.7526 25.0134 25.7527 25.0134C25.7528 25.0133 25.7528 25.0133 25.7529 25.0133C25.7529 25.0132 25.753 25.0132 25.7531 25.0131C25.7531 25.0131 25.7532 25.0131 25.7532 25.013C25.7533 25.013 25.7533 25.013 25.7534 25.0129C25.7534 25.0129 25.7535 25.0129 25.7535 25.0128C25.7536 25.0128 25.7536 25.0128 25.7536 25.0128C25.7537 25.0127 25.7537 25.0127 25.7538 25.0127C25.7538 25.0126 25.7539 25.0126 25.7539 25.0126C25.7539 25.0126 25.754 25.0125 25.754 25.0125C25.754 25.0125 25.7541 25.0125 25.7541 25.0124C25.7541 25.0124 25.7542 25.0124 25.7542 25.0124C25.7542 25.0124 25.7543 25.0123 25.7543 25.0123C25.7543 25.0123 25.7543 25.0123 25.7544 25.0123C25.7544 25.0123 25.7544 25.0122 25.7544 25.0122C25.7545 25.0122 25.7545 25.0122 25.7545 25.0122C25.7545 25.0122 25.7545 25.0122 25.7546 25.0121C25.7546 25.0121 25.7546 25.0121 25.7546 25.0121C25.7546 25.0121 25.7546 25.0121 25.7546 25.0121C25.7546 25.0121 25.7547 25.0121 25.7547 25.0121C25.7547 25.0121 25.7547 25.0121 25.7547 25.0121C25.7547 25.0121 25.7547 25.0121 25.7547 25.0121C25.7547 25.0121 25.7547 25.012 25.2 24.18ZM23.4584 24.1502C23.1538 24.4189 22.9077 24.5918 22.7178 24.6935C22.5228 24.798 22.4383 24.8 22.44 24.8V26.8C23.2769 26.8 24.0818 26.2673 24.7816 25.6498L23.4584 24.1502ZM22.44 24.8C21.5711 24.8 20.9381 24.5856 20.4675 24.2256L19.2526 25.8144C20.1419 26.4944 21.2289 26.8 22.44 26.8V24.8ZM20.4675 24.2256C19.9082 23.798 19.322 23.138 18.7223 22.2009L17.0377 23.2791C17.718 24.342 18.4518 25.202 19.2526 25.8144L20.4675 24.2256ZM18.697 22.1633L15.817 18.0833L14.183 19.2367L17.063 23.3167L18.697 22.1633ZM15.8137 18.0788C13.8159 15.2818 12.3682 13.1789 11.4627 11.7616L9.7773 12.8384C10.7118 14.3011 12.1841 16.4382 14.1863 19.2412L15.8137 18.0788ZM9.62 12.3C9.62 16.0077 9.80119 21.0293 10.1616 27.3569L12.1584 27.2431C11.7988 20.9307 11.62 15.9523 11.62 12.3H9.62ZM10.1629 27.3767C10.4425 31.0108 10.58 33.7197 10.58 35.52H12.58C12.58 33.6403 12.4375 30.8692 12.1571 27.2233L10.1629 27.3767ZM10.58 35.52C10.58 36.3062 10.3864 36.9169 10.043 37.4033L11.677 38.5567C12.2936 37.6831 12.58 36.6538 12.58 35.52H10.58ZM10.06 37.38C9.82327 37.6956 9.40858 37.94 8.58 37.94V39.94C9.83142 39.94 10.9367 39.5444 11.66 38.58L10.06 37.38ZM8.58 37.94C7.66313 37.94 6.9919 37.7633 6.50702 37.4781L5.49298 39.2019C6.3681 39.7167 7.41687 39.94 8.58 39.94V37.94ZM6.53 37.492C6.18687 37.2775 6.0036 36.9871 5.97875 36.4901L3.98125 36.5899C4.0364 37.6929 4.53313 38.6025 5.47 39.188L6.53 37.492ZM5.97827 36.5987C6.02015 35.8868 6.04 34.7412 6.04 33.18H4.04C4.04 34.7388 4.01985 35.8332 3.98173 36.4813L5.97827 36.5987ZM6.04 33.18C6.04 30.0403 5.93941 26.2244 5.73901 21.7354L3.741 21.8246C3.94059 26.2956 4.04 30.0797 4.04 33.18H6.04ZM5.73932 21.743L5.61932 18.503L3.62069 18.577L3.74069 21.817L5.73932 21.743ZM5.61959 18.5114L5.49959 14.3114L3.50041 14.3686L3.62041 18.5686L5.61959 18.5114ZM5.49948 14.3078C5.45959 13.0711 5.41966 11.6338 5.3797 9.99562L3.3803 10.0444C3.42034 11.6862 3.46041 13.1289 3.50052 14.3722L5.49948 14.3078ZM5.37972 9.9962C5.33993 8.3253 5.32 6.51333 5.32 4.56H3.32C3.32 6.52667 3.34007 8.3547 3.38028 10.0438L5.37972 9.9962ZM5.32 4.56C5.32 3.53561 5.59372 2.94517 5.97328 2.5948C6.36797 2.23048 7.05517 1.96 8.22 1.96V-0.0400002C6.78483 -0.0400002 5.52203 0.289524 4.61672 1.1252C3.69628 1.97483 3.32 3.18439 3.32 4.56H5.32ZM8.22 1.96C8.84724 1.96 9.49507 2.11557 10.1728 2.45443L11.0672 0.665572C10.1449 0.204429 9.19276 -0.0400002 8.22 -0.0400002V1.96ZM10.1901 2.46286C10.8524 2.77826 11.3041 3.21293 11.5951 3.76574L13.3649 2.83425C12.8559 1.86707 12.0676 1.14174 11.0499 0.657138L10.1901 2.46286ZM11.5051 3.52282C11.8682 5.11128 13.1419 7.56577 15.1738 10.7928L16.8662 9.72718C14.8181 6.47423 13.7318 4.28872 13.4549 3.07717L11.5051 3.52282ZM15.1738 10.7928C17.2205 14.0434 19.2282 17.0953 21.197 19.948L22.843 18.812C20.8918 15.9847 18.8995 12.9566 16.8662 9.72718L15.1738 10.7928ZM22.8063 19.9978C24.5578 17.7687 25.9691 16.1251 27.0471 15.0471L25.6329 13.6329C24.4709 14.7949 23.0022 16.5113 21.2337 18.7622L22.8063 19.9978ZM27.0544 15.0398C28.9974 13.0563 30.61 11.2007 31.8846 9.47385L30.2754 8.28615C29.07 9.9193 27.5226 11.7037 25.6256 13.6402L27.0544 15.0398ZM31.8754 9.48604C33.1785 7.77573 34.5758 5.72941 36.0672 3.35129L34.3728 2.28871C32.9042 4.63058 31.5415 6.62426 30.2846 8.27395L31.8754 9.48604ZM36.02 3.42C36.2603 3.09955 36.637 2.79251 37.2058 2.52482L36.3542 0.71518C35.563 1.08749 34.8997 1.58045 34.42 2.22L36.02 3.42ZM37.2479 2.50379C37.7856 2.21912 38.3452 2.08 38.94 2.08V0.0799983C38.0148 0.0799983 37.1344 0.300881 36.3121 0.73621L37.2479 2.50379ZM62.588 1.5L62.0333 2.33205L62.0455 2.34021L62.058 2.348L62.588 1.5ZM63.728 3.6L62.7351 3.71914L62.737 3.73469L62.7393 3.75017L63.728 3.6ZM64.628 13.08L63.6286 13.118L63.6293 13.1312L64.628 13.08ZM64.448 32.88L63.45 32.8171L63.3887 33.7878L64.3574 33.8759L64.448 32.88ZM73.148 32.82L73.231 33.8165L73.2603 33.8141L73.2894 33.8099L73.148 32.82ZM79.448 32.82L79.2054 33.7901L79.2285 33.7959L79.2519 33.8006L79.448 32.82ZM81.908 33.66L82.4041 32.7918L82.3717 32.7732L82.3379 32.7571L81.908 33.66ZM82.388 38.04L81.6119 37.4094L81.5996 37.4245L81.588 37.44L82.388 38.04ZM78.368 38.76L78.52 37.7716L78.5153 37.7709L78.368 38.76ZM71.048 38.46L71.1067 39.4583L71.1326 39.4568L71.1584 39.4539L71.048 38.46ZM69.548 38.52V37.52H69.4857L69.4239 37.5277L69.548 38.52ZM61.388 38.4L61.5151 37.4081L61.5013 37.4063L61.4875 37.405L61.388 38.4ZM58.988 37.5L58.4145 38.3192L58.4286 38.3291L58.443 38.3384L58.988 37.5ZM58.028 30.48L57.0303 30.4122L57.03 30.4156L58.028 30.48ZM57.908 12.3L58.9045 12.217L58.9036 12.2058L58.9024 12.1947L57.908 12.3ZM58.088 1.62L57.4097 0.885196L57.395 0.898756L57.3809 0.912892L58.088 1.62ZM60.548 1.9C61.1218 1.9 61.6066 2.04762 62.0333 2.33205L63.1427 0.667951C62.3693 0.152374 61.4942 -0.100003 60.548 -0.100003V1.9ZM62.058 2.348C62.3617 2.53784 62.6382 2.91202 62.7351 3.71914L64.7208 3.48085C64.5777 2.28797 64.0942 1.26216 63.118 0.652001L62.058 2.348ZM62.7393 3.75017C63.2137 6.87339 63.5101 9.99593 63.6287 13.1179L65.6272 13.0421C65.5058 9.84407 65.2022 6.6466 64.7166 3.44982L62.7393 3.75017ZM63.6293 13.1312C63.7882 16.2304 63.868 19.7528 63.868 23.7H65.868C65.868 19.7272 65.7877 16.1696 65.6267 13.0288L63.6293 13.1312ZM63.868 23.7C63.868 25.3443 63.7301 28.3748 63.45 32.8171L65.446 32.9429C65.7258 28.5052 65.868 25.4157 65.868 23.7H63.868ZM64.3574 33.8759C66.127 34.0368 67.5225 34.12 68.528 34.12V32.12C67.6135 32.12 66.2889 32.0432 64.5385 31.8841L64.3574 33.8759ZM68.528 34.12C69.2581 34.12 70.843 34.0155 73.231 33.8165L73.0649 31.8235C70.6529 32.0245 69.1579 32.12 68.528 32.12V34.12ZM73.2894 33.8099C74.658 33.6144 75.8287 33.52 76.808 33.52V31.52C75.7073 31.52 74.438 31.6256 73.0065 31.8301L73.2894 33.8099ZM76.808 33.52C77.6992 33.52 78.4965 33.6129 79.2054 33.7901L79.6905 31.8499C78.7995 31.6271 77.8367 31.52 76.808 31.52V33.52ZM79.2519 33.8006C79.9606 33.9423 80.7023 34.1934 81.478 34.5629L82.3379 32.7571C81.4337 32.3266 80.5353 32.0177 79.6441 31.8394L79.2519 33.8006ZM81.4118 34.5282C81.9275 34.8229 82.168 35.2239 82.168 35.88H84.168C84.168 34.5361 83.5684 33.4571 82.4041 32.7918L81.4118 34.5282ZM82.168 35.88C82.168 36.4428 81.9919 36.9417 81.6119 37.4094L83.1641 38.6706C83.8241 37.8583 84.168 36.9172 84.168 35.88H82.168ZM81.588 37.44C81.2591 37.8785 80.9553 38 80.648 38V40C81.7007 40 82.5568 39.4815 83.188 38.64L81.588 37.44ZM80.648 38C80.2499 38 79.5545 37.9308 78.52 37.7716L78.2159 39.7484C79.2615 39.9092 80.086 40 80.648 40V38ZM78.5153 37.7709C76.5915 37.4844 74.7421 37.34 72.968 37.34V39.34C74.6338 39.34 76.3844 39.4756 78.2207 39.7491L78.5153 37.7709ZM72.968 37.34C72.3622 37.34 71.6842 37.3832 70.9375 37.4661L71.1584 39.4539C71.8517 39.3768 72.4537 39.34 72.968 39.34V37.34ZM70.9892 37.4617C70.3121 37.5016 69.8368 37.52 69.548 37.52V39.52C69.8991 39.52 70.4238 39.4984 71.1067 39.4583L70.9892 37.4617ZM69.4239 37.5277C68.5048 37.6426 67.5862 37.7 66.668 37.7V39.7C67.6698 39.7 68.6712 39.6374 69.672 39.5123L69.4239 37.5277ZM66.668 37.7C64.7406 37.7 63.0242 37.6016 61.5151 37.4081L61.2608 39.3919C62.8717 39.5984 64.6753 39.7 66.668 39.7V37.7ZM61.4875 37.405C60.8735 37.3436 60.224 37.1107 59.533 36.6616L58.443 38.3384C59.352 38.9293 60.3025 39.2964 61.2885 39.395L61.4875 37.405ZM59.5614 36.6808C59.0486 36.3218 58.788 35.8387 58.788 35.1H56.788C56.788 36.4413 57.3273 37.5582 58.4145 38.3192L59.5614 36.6808ZM58.788 35.1C58.788 34.5397 58.8651 33.0372 59.0259 30.5444L57.03 30.4156C56.8709 32.8828 56.788 34.4603 56.788 35.1H58.788ZM59.0257 30.5478C59.3061 26.4216 59.448 23.2546 59.448 21.06H57.448C57.448 23.1854 57.3098 26.2984 57.0303 30.4122L59.0257 30.5478ZM59.448 21.06C59.448 19.3484 59.3665 17.5594 59.2042 15.6934L57.2117 15.8666C57.3695 17.6806 57.448 19.4116 57.448 21.06H59.448ZM59.2042 15.6934C59.0442 13.8528 58.9443 12.6948 58.9045 12.217L56.9114 12.383C56.9516 12.8652 57.0518 14.0272 57.2117 15.8666L59.2042 15.6934ZM58.9024 12.1947C58.5443 8.81282 58.368 6.05119 58.368 3.9H56.368C56.368 6.1488 56.5516 8.98717 56.9135 12.4053L58.9024 12.1947ZM58.368 3.9C58.368 2.98695 58.5818 2.54036 58.7951 2.3271L57.3809 0.912892C56.6341 1.65964 56.368 2.73305 56.368 3.9H58.368ZM58.7662 2.3548C59.0195 2.12103 59.5394 1.9 60.548 1.9V-0.100003C59.3165 -0.100003 58.1964 0.158966 57.4097 0.885196L58.7662 2.3548ZM126.121 35.64L125.615 36.5023L125.644 36.5194L125.674 36.5344L126.121 35.64ZM127.021 36.42L126.173 36.95L126.195 36.986L126.221 37.02L127.021 36.42ZM126.481 39.6L125.89 38.7936L125.873 38.806L125.856 38.8191L126.481 39.6ZM121.501 39.66L121.093 40.5731L121.114 40.5824L121.135 40.5908L121.501 39.66ZM114.721 33.54L113.914 34.13L113.917 34.135L114.721 33.54ZM107.221 21.24L108.103 20.768L107.545 19.7266L106.61 20.4484L107.221 21.24ZM100.261 26.16L99.7195 25.3193L99.2609 25.6146V26.16H100.261ZM100.321 29.1L99.3216 29.1357L99.3223 29.1548L99.3237 29.1739L100.321 29.1ZM100.441 31.5H99.4409V31.5172L99.4415 31.5345L100.441 31.5ZM99.9009 38.1L100.707 38.6914L100.716 38.6791L100.725 38.6665L99.9009 38.1ZM95.1609 38.4L94.5431 39.1863L94.5611 39.2004L94.5797 39.2137L95.1609 38.4ZM94.1409 36.54L95.1299 36.3917L95.1284 36.382L94.1409 36.54ZM94.1409 21.78L93.1445 21.6952L93.1443 21.6986L94.1409 21.78ZM94.5009 10.2L93.5016 10.237L93.502 10.2479L93.5027 10.2587L94.5009 10.2ZM94.1409 7.2L93.1487 7.32403L93.1542 7.36857L93.1638 7.41243L94.1409 7.2ZM94.7409 1.74L95.448 2.4471L95.448 2.4471L94.7409 1.74ZM99.4809 1.68L98.8005 2.41279L98.8275 2.43786L98.8562 2.46087L99.4809 1.68ZM100.501 3.66L101.499 3.60128L101.498 3.58321L101.496 3.56519L100.501 3.66ZM100.801 11.52L101.8 11.56L101.801 11.54V11.52H100.801ZM100.561 15.84L99.563 15.7763L99.5623 15.7864L99.5619 15.7966L100.561 15.84ZM100.321 19.32L99.3345 19.1556L98.9925 21.2079L100.809 20.1929L100.321 19.32ZM108.301 12.78L108.974 13.5199L108.974 13.5196L108.301 12.78ZM116.821 4.2L116.065 3.54507L116.054 3.55817L116.043 3.57166L116.821 4.2ZM117.601 3.3L118.357 3.95493L118.377 3.93111L118.396 3.90604L117.601 3.3ZM119.221 1.56L119.809 2.36874L119.809 2.36873L119.221 1.56ZM123.061 1.86L122.406 2.61569L122.433 2.63881L122.461 2.66L123.061 1.86ZM121.981 7.62L121.274 6.91289L121.268 6.91917L121.261 6.92555L121.981 7.62ZM112.021 17.22L111.355 16.4736L110.769 16.9961L111.138 17.6893L112.021 17.22ZM118.921 28.68L118.102 29.2535L118.106 29.2593L118.11 29.2651L118.921 28.68ZM125.674 36.5344C125.94 36.6675 126.087 36.8128 126.173 36.95L127.869 35.89C127.555 35.3872 127.102 35.0125 126.568 34.7456L125.674 36.5344ZM126.221 37.02C126.281 37.0996 126.381 37.3135 126.381 37.8H128.381C128.381 37.0865 128.241 36.3804 127.821 35.82L126.221 37.02ZM126.381 37.8C126.381 38.2495 126.226 38.5467 125.89 38.7936L127.072 40.4064C127.936 39.7733 128.381 38.8705 128.381 37.8H126.381ZM125.856 38.8191C125.421 39.1675 124.978 39.32 124.501 39.32V41.32C125.464 41.32 126.341 40.9925 127.106 40.3809L125.856 38.8191ZM124.501 39.32C123.783 39.32 122.91 39.1392 121.867 38.7292L121.135 40.5908C122.332 41.0608 123.459 41.32 124.501 41.32V39.32ZM121.909 38.7469C119.89 37.8458 117.755 35.9574 115.525 32.945L113.917 34.135C116.247 37.2826 118.632 39.4742 121.093 40.5731L121.909 38.7469ZM115.528 32.95C113.286 29.8809 110.81 25.8248 108.103 20.768L106.339 21.712C109.072 26.8152 111.596 30.9591 113.914 34.13L115.528 32.95ZM106.61 20.4484C104.352 22.1915 102.055 23.8151 99.7195 25.3193L100.802 27.0007C103.187 25.4649 105.53 23.8085 107.832 22.0316L106.61 20.4484ZM99.2609 26.16C99.2609 27.0151 99.2813 28.0074 99.3216 29.1357L101.32 29.0643C101.281 27.9526 101.261 26.9849 101.261 26.16H99.2609ZM99.3237 29.1739C99.4034 30.2496 99.4409 31.0189 99.4409 31.5H101.441C101.441 30.9411 101.399 30.1104 101.318 29.0261L99.3237 29.1739ZM99.4415 31.5345C99.5216 33.8576 99.5609 35.3802 99.5609 36.12H101.561C101.561 35.3398 101.52 33.7824 101.44 31.4655L99.4415 31.5345ZM99.5609 36.12C99.5609 36.5699 99.4191 37.0357 99.0769 37.5335L100.725 38.6665C101.263 37.8843 101.561 37.0301 101.561 36.12H99.5609ZM99.0945 37.5086C98.8788 37.8028 98.5484 38 97.9209 38V40C99.0535 40 100.043 39.5972 100.707 38.6914L99.0945 37.5086ZM97.9209 38C96.6949 38 96.0397 37.7988 95.7422 37.5863L94.5797 39.2137C95.4022 39.8012 96.587 40 97.9209 40V38ZM95.7788 37.6137C95.4469 37.3529 95.2176 36.9764 95.1299 36.3917L93.152 36.6883C93.3043 37.7036 93.755 38.5671 94.5431 39.1863L95.7788 37.6137ZM95.1284 36.382C94.8159 34.4291 94.6609 32.5621 94.6609 30.78H92.6609C92.6609 32.6779 92.826 34.6509 93.1535 36.698L95.1284 36.382ZM94.6609 30.78C94.6609 28.7413 94.8183 25.7736 95.1376 21.8614L93.1443 21.6986C92.8236 25.6264 92.6609 28.6587 92.6609 30.78H94.6609ZM95.1373 21.8648C95.4579 18.0987 95.6209 15.2441 95.6209 13.32H93.6209C93.6209 15.1559 93.464 17.9413 93.1445 21.6952L95.1373 21.8648ZM95.6209 13.32C95.6209 12.5702 95.5795 11.5069 95.4992 10.1413L93.5027 10.2587C93.5823 11.6131 93.6209 12.6298 93.6209 13.32H95.6209ZM95.5003 10.163C95.4584 9.03243 95.3323 7.97299 95.1181 6.98757L93.1638 7.41243C93.3495 8.267 93.4635 9.20757 93.5016 10.237L95.5003 10.163ZM95.1332 7.07596C94.973 5.79455 94.9009 4.95069 94.9009 4.5H92.9009C92.9009 5.08931 92.9888 6.04545 93.1487 7.32403L95.1332 7.07596ZM94.9009 4.5C94.9009 3.32861 95.163 2.73212 95.448 2.4471L94.0338 1.03289C93.1988 1.86788 92.9009 3.11139 92.9009 4.5H94.9009ZM95.448 2.4471C95.7485 2.14662 96.3032 1.9 97.3209 1.9V-0.100003C96.0187 -0.100003 94.8533 0.213375 94.0338 1.03289L95.448 2.4471ZM97.3209 1.9C97.9895 1.9 98.4535 2.09054 98.8005 2.41279L100.161 0.947205C99.3884 0.229451 98.4124 -0.100003 97.3209 -0.100003V1.9ZM98.8562 2.46087C99.223 2.75429 99.4483 3.15503 99.5054 3.75481L101.496 3.56519C101.394 2.48496 100.939 1.56571 100.106 0.899129L98.8562 2.46087ZM99.5027 3.71872C99.7023 7.11259 99.8009 9.70954 99.8009 11.52H101.801C101.801 9.65046 101.7 7.00741 101.499 3.60128L99.5027 3.71872ZM99.8017 11.48C99.7622 12.468 99.6828 13.8986 99.563 15.7763L101.559 15.9037C101.679 14.0214 101.76 12.572 101.8 11.56L99.8017 11.48ZM99.5619 15.7966C99.481 17.6571 99.4024 18.7487 99.3345 19.1556L101.307 19.4844C101.4 18.9313 101.481 17.7029 101.56 15.8834L99.5619 15.7966ZM100.809 20.1929C102.289 19.366 105.037 17.0989 108.974 13.5199L107.628 12.0401C103.645 15.6611 101.073 17.754 99.8331 18.4471L100.809 20.1929ZM108.974 13.5196C112.982 9.87254 115.869 6.97047 117.599 4.82833L116.043 3.57166C114.413 5.58953 111.62 8.40746 107.628 12.0404L108.974 13.5196ZM117.577 4.85493L118.357 3.95493L116.845 2.64507L116.065 3.54507L117.577 4.85493ZM118.396 3.90604C119.022 3.0851 119.491 2.60042 119.809 2.36874L118.633 0.751261C118.071 1.15958 117.46 1.83489 116.806 2.69396L118.396 3.90604ZM119.809 2.36873C120.022 2.21371 120.391 2.08 121.021 2.08V0.0799983C120.131 0.0799983 119.3 0.266284 118.633 0.751264L119.809 2.36873ZM121.021 2.08C121.529 2.08 121.979 2.24557 122.406 2.61569L123.716 1.10431C122.943 0.434424 122.033 0.0799983 121.021 0.0799983V2.08ZM122.461 2.66C122.899 2.98884 123.021 3.29269 123.021 3.6H125.021C125.021 2.5473 124.502 1.69115 123.661 1.06L122.461 2.66ZM123.021 3.6C123.021 4.55421 122.532 5.65475 121.274 6.91289L122.688 8.32711C124.15 6.86525 125.021 5.28579 125.021 3.6H123.021ZM121.261 6.92555C117.957 10.3489 114.655 13.5314 111.355 16.4736L112.686 17.9664C116.026 14.9886 119.364 11.7711 122.7 8.31445L121.261 6.92555ZM111.138 17.6893C113.512 22.1557 115.833 26.0122 118.102 29.2535L119.74 28.1065C117.529 24.9478 115.25 21.1643 112.904 16.7507L111.138 17.6893ZM118.11 29.2651C120.446 32.5021 122.942 34.9328 125.615 36.5023L126.627 34.7777C124.26 33.3872 121.956 31.1779 119.732 28.0949L118.11 29.2651Z" fill="black"/>
</g>
<defs>
<filter id="filter0_d_2_3" x="0.32" y="0.899994" width="131.061" height="47.42" filterUnits="userSpaceOnUse" color-interpolation-filters="sRGB">
<feFlood flood-opacity="0" result="BackgroundImageFix"/>
<feColorMatrix in="SourceAlpha" type="matrix" values="0 0 0 0 0 0 0 0 0 0 0 0 0 0 0 0 0 0 127 0" result="hardAlpha"/>
<feOffset dy="4"/>
<feGaussianBlur stdDeviation="2"/>
<feComposite in2="hardAlpha" operator="out"/>
<feColorMatrix type="matrix" values="0 0 0 0 0 0 0 0 0 0 0 0 0 0 0 0 0 0 0.25 0"/>
<feBlend mode="normal" in2="BackgroundImageFix" result="effect1_dropShadow_2_3"/>
<feBlend mode="normal" in="SourceGraphic" in2="effect1_dropShadow_2_3" result="shape"/>
</filter>
</defs>
</svg>
