<svg width="214" height="75" viewBox="0 0 214 75" fill="none" xmlns="http://www.w3.org/2000/svg">
<g filter="url(#filter0_d_2_3)">
<path d="M61.9 0.799997C62.8333 0.799997 63.9667 1.43333 65.3 2.7C66.7 3.9 67.4 4.93333 67.4 5.8C67.4 9.86666 67.2667 15.4333 67 22.5C66.9333 24.2333 66.8667 26.3333 66.8 28.8C66.7333 31.2 66.7 34 66.7 37.2C66.7 47.3333 67.3 54.8 68.5 59.6C68.4333 61.2 67.8 62.3667 66.6 63.1C65.4 63.7667 64.2 64.1 63 64.1C60.3333 64.1 58.5667 63.1667 57.7 61.3C56.9 59.4333 56.5 56.7667 56.5 53.3C56.5 40.4333 56.6333 28.6 56.9 17.8C49.2333 26.3333 43.2667 33.5 39 39.3C39 39.3 38.4 39.7 37.2 40.5C36.0667 41.5 35.1333 42 34.4 42C32.6667 42 31.2333 41.5667 30.1 40.7C28.9667 39.8333 27.8667 38.5667 26.8 36.9L22 30.1C18.6667 25.4333 16.2333 21.9 14.7 19.5C14.7 25.6333 15 33.9667 15.6 44.5C16.0667 50.5667 16.3 55.1333 16.3 58.2C16.3 59.8 15.9 61.1667 15.1 62.3C14.3 63.3667 13.0333 63.9 11.3 63.9C9.56667 63.9 8.13333 63.5667 7 62.9C5.93333 62.2333 5.36667 61.2333 5.3 59.9C5.36667 58.7667 5.4 56.9 5.4 54.3C5.4 49.1 5.23333 42.7667 4.9 35.3L4.7 29.9L4.5 22.9C4.43333 20.8333 4.36667 18.4333 4.3 15.7C4.23333 12.9 4.2 9.86666 4.2 6.6C4.2 2.6 6.36667 0.6 10.7 0.6C12.0333 0.6 13.3667 0.933333 14.7 1.6C16.1 2.26666 17.1333 3.23333 17.8 4.5C18.3333 6.83333 20.3 10.7 23.7 16.1C27.1 21.5 30.4333 26.5667 33.7 31.3C36.6333 27.5667 39.0333 24.7667 40.9 22.9C44.1 19.6333 46.7333 16.6 48.8 13.8C50.9333 11 53.2333 7.63333 55.7 3.7C56.3 2.9 57.1667 2.23333 58.3 1.7C59.4333 1.1 60.6333 0.799997 61.9 0.799997ZM97.9133 0.499995C99.1799 0.499995 100.313 0.83333 101.313 1.5C102.38 2.16667 103.013 3.33333 103.213 5C104.013 10.2667 104.513 15.5333 104.713 20.8C104.98 26 105.113 31.9 105.113 38.5C105.113 41.3 104.88 46.4 104.413 53.8C107.347 54.0667 109.613 54.2 111.213 54.2C112.347 54.2 114.913 54.0333 118.913 53.7C121.247 53.3667 123.28 53.2 125.013 53.2C126.613 53.2 128.08 53.3667 129.413 53.7C130.747 53.9667 132.113 54.4333 133.513 55.1C134.913 55.9 135.613 57.1333 135.613 58.8C135.613 60.1333 135.18 61.3333 134.313 62.4C133.513 63.4667 132.547 64 131.413 64C130.613 64 129.347 63.8667 127.613 63.6C124.48 63.1333 121.48 62.9 118.613 62.9C117.68 62.9 116.613 62.9667 115.413 63.1C114.28 63.1667 113.447 63.2 112.913 63.2C111.313 63.4 109.713 63.5 108.113 63.5C104.847 63.5 101.913 63.3333 99.3133 63C97.9799 62.8667 96.6466 62.3667 95.3133 61.5C93.9799 60.5667 93.3133 59.2333 93.3133 57.5C93.3133 56.5 93.4466 53.9333 93.7133 49.8C94.1799 42.9333 94.4133 37.7 94.4133 34.1C94.4133 31.3 94.2799 28.3667 94.0133 25.3C93.7466 22.2333 93.5799 20.3 93.5133 19.5C92.9133 13.8333 92.6133 9.16666 92.6133 5.5C92.6133 3.76667 93.0133 2.5 93.8133 1.7C94.6799 0.899996 96.0466 0.499995 97.9133 0.499995ZM207.202 58.4C207.868 58.7333 208.368 59.1667 208.702 59.7C209.102 60.2333 209.302 61 209.302 62C209.302 63.2667 208.802 64.2667 207.802 65C206.802 65.8 205.702 66.2 204.502 66.2C203.035 66.2 201.368 65.8333 199.502 65.1C195.768 63.4333 192.002 60.0333 188.202 54.9C184.402 49.7 180.235 42.8667 175.702 34.4C171.902 37.3333 168.035 40.0667 164.102 42.6C164.102 44 164.135 45.6333 164.202 47.5C164.335 49.3 164.402 50.6333 164.402 51.5C164.535 55.3667 164.602 57.9333 164.602 59.2C164.602 60.3333 164.235 61.4333 163.502 62.5C162.768 63.5 161.668 64 160.202 64C158.068 64 156.535 63.6667 155.602 63C154.668 62.2667 154.102 61.2333 153.902 59.9C153.368 56.5667 153.102 53.3667 153.102 50.3C153.102 46.8333 153.368 41.8333 153.902 35.3C154.435 29.0333 154.702 24.3333 154.702 21.2C154.702 20 154.635 18.2667 154.502 16C154.435 14.2 154.235 12.5333 153.902 11C153.635 8.86666 153.502 7.36666 153.502 6.5C153.502 4.36666 153.968 2.83333 154.902 1.89999C155.835 0.966662 157.268 0.499995 159.202 0.499995C160.668 0.499995 161.868 0.933329 162.802 1.8C163.802 2.6 164.368 3.7 164.502 5.1C164.835 10.7667 165.002 15.1333 165.002 18.2C164.935 19.8667 164.802 22.2667 164.602 25.4C164.468 28.4667 164.335 30.4 164.202 31.2C166.468 29.9333 170.902 26.3 177.502 20.3C184.168 14.2333 188.902 9.46667 191.702 6L193.002 4.5C194.068 3.1 194.968 2.13333 195.702 1.6C196.435 1.06666 197.435 0.799997 198.702 0.799997C199.968 0.799997 201.102 1.23333 202.102 2.1C203.168 2.9 203.702 3.86666 203.702 5C203.702 7.2 202.568 9.43333 200.302 11.7C194.768 17.4333 189.235 22.7667 183.702 27.7C187.635 35.1 191.468 41.4667 195.202 46.8C199.002 52.0667 203.002 55.9333 207.202 58.4Z" fill="#FFECEC"/>
<path d="M65.3 2.7L64.6113 3.425L64.6298 3.44261L64.6492 3.45925L65.3 2.7ZM67 22.5L67.9993 22.5384L67.9993 22.5377L67 22.5ZM66.8 28.8L67.7996 28.8278L67.7996 28.827L66.8 28.8ZM68.5 59.6L69.4991 59.6416L69.5051 59.4975L69.4701 59.3575L68.5 59.6ZM66.6 63.1L67.0856 63.9742L67.1038 63.9641L67.1215 63.9533L66.6 63.1ZM57.7 61.3L56.7809 61.6939L56.7867 61.7076L56.793 61.7211L57.7 61.3ZM56.9 17.8L57.8997 17.8247L57.9666 15.1166L56.1561 17.1317L56.9 17.8ZM39 39.3L39.5547 40.132L39.7012 40.0344L39.8055 39.8926L39 39.3ZM37.2 40.5L36.6453 39.6679L36.5891 39.7054L36.5384 39.7502L37.2 40.5ZM30.1 40.7L30.7075 39.9056L30.7075 39.9056L30.1 40.7ZM26.8 36.9L27.6423 36.3609L27.63 36.3418L27.617 36.3233L26.8 36.9ZM22 30.1L22.817 29.5233L22.8137 29.5188L22 30.1ZM14.7 19.5L15.5427 18.9616L13.7 16.0774V19.5H14.7ZM15.6 44.5L14.6016 44.5569L14.6022 44.5668L14.6029 44.5767L15.6 44.5ZM15.1 62.3L15.9 62.9L15.9087 62.8885L15.917 62.8767L15.1 62.3ZM7 62.9L6.47 63.748L6.4814 63.7551L6.49298 63.7619L7 62.9ZM5.3 59.9L4.30173 59.8413L4.29853 59.8956L4.30125 59.9499L5.3 59.9ZM4.9 35.3L3.90066 35.337L3.901 35.3446L4.9 35.3ZM4.7 29.9L3.70037 29.9286L3.70069 29.937L4.7 29.9ZM4.5 22.9L5.4996 22.8714L5.49948 22.8678L4.5 22.9ZM4.3 15.7L3.30028 15.7238L3.3003 15.7244L4.3 15.7ZM14.7 1.6L14.2528 2.49443L14.2614 2.49873L14.2701 2.50286L14.7 1.6ZM17.8 4.5L18.7749 4.27717L18.7458 4.14984L18.6849 4.03425L17.8 4.5ZM23.7 16.1L24.5462 15.5672L24.5462 15.5672L23.7 16.1ZM33.7 31.3L32.877 31.868L33.6478 32.985L34.4863 31.9178L33.7 31.3ZM40.9 22.9L41.6071 23.6071L41.6144 23.5998L40.9 22.9ZM48.8 13.8L48.0046 13.194L48 13.2L47.9954 13.2061L48.8 13.8ZM55.7 3.7L54.9 3.09999L54.875 3.13337L54.8528 3.16871L55.7 3.7ZM58.3 1.7L58.7258 2.60482L58.7471 2.5948L58.7679 2.58379L58.3 1.7ZM61.9 1.8C62.4215 1.8 63.3072 2.18618 64.6113 3.425L65.9888 1.975C64.6261 0.680481 63.2452 -0.200003 61.9 -0.200003V1.8ZM64.6492 3.45925C65.3105 4.02611 65.7647 4.51892 66.0471 4.93585C66.3321 5.35653 66.4 5.63674 66.4 5.8H68.4C68.4 5.09659 68.1179 4.4268 67.7029 3.81415C67.2854 3.19774 66.6895 2.57389 65.9508 1.94074L64.6492 3.45925ZM66.4 5.8C66.4 9.84822 66.2672 15.4005 66.0007 22.4623L67.9993 22.5377C68.2661 15.4662 68.4 9.88511 68.4 5.8H66.4ZM66.0007 22.4616C65.9339 24.1999 65.8671 26.3039 65.8004 28.773L67.7996 28.827C67.8662 26.3627 67.9328 24.2667 67.9993 22.5384L66.0007 22.4616ZM65.8004 28.7722C65.7334 31.1839 65.7 33.9936 65.7 37.2H67.7C67.7 34.0064 67.7333 31.2161 67.7996 28.8278L65.8004 28.7722ZM65.7 37.2C65.7 47.3485 66.2986 54.9176 67.5299 59.8425L69.4701 59.3575C68.3014 54.6824 67.7 47.3181 67.7 37.2H65.7ZM67.5009 59.5584C67.4458 60.879 66.9507 61.7137 66.0786 62.2467L67.1215 63.9533C68.6493 63.0196 69.4208 61.521 69.4991 59.6416L67.5009 59.5584ZM66.1144 62.2258C65.0413 62.822 64.0069 63.1 63 63.1V65.1C64.3931 65.1 65.7587 64.7113 67.0856 63.9742L66.1144 62.2258ZM63 63.1C60.5846 63.1 59.2587 62.2825 58.607 60.8789L56.793 61.7211C57.8746 64.0508 60.082 65.1 63 65.1V63.1ZM58.6192 60.9061C57.8975 59.2221 57.5 56.7136 57.5 53.3H55.5C55.5 56.8197 55.9026 59.6445 56.7809 61.6939L58.6192 60.9061ZM57.5 53.3C57.5 40.4401 57.6333 28.6151 57.8997 17.8247L55.9003 17.7753C55.6334 28.5849 55.5 40.4266 55.5 53.3H57.5ZM56.1561 17.1317C48.4788 25.6769 42.4883 32.8705 38.1945 38.7074L39.8055 39.8926C44.0451 34.1295 49.9879 26.9898 57.6439 18.4683L56.1561 17.1317ZM39 39.3C38.4453 38.4679 38.4453 38.468 38.4453 38.468C38.4453 38.468 38.4453 38.468 38.4453 38.468C38.4453 38.468 38.4453 38.468 38.4452 38.468C38.4452 38.468 38.4452 38.468 38.4452 38.468C38.4452 38.468 38.4452 38.468 38.4451 38.4681C38.4451 38.4681 38.4451 38.4681 38.4451 38.4681C38.4449 38.4682 38.445 38.4681 38.4449 38.4682C38.4448 38.4683 38.4448 38.4683 38.4447 38.4683C38.4447 38.4683 38.4447 38.4684 38.4446 38.4684C38.4445 38.4685 38.4445 38.4685 38.4443 38.4686C38.4443 38.4686 38.4442 38.4687 38.4441 38.4687C38.4441 38.4688 38.444 38.4688 38.444 38.4688C38.4439 38.4689 38.4438 38.4689 38.4438 38.469C38.4437 38.469 38.4436 38.4691 38.4435 38.4691C38.4435 38.4691 38.4431 38.4694 38.4431 38.4694C38.443 38.4695 38.4429 38.4695 38.4428 38.4696C38.4427 38.4697 38.4426 38.4697 38.4426 38.4698C38.4425 38.4698 38.4424 38.4699 38.4423 38.47C38.4422 38.47 38.4421 38.4701 38.442 38.4702C38.4419 38.4702 38.4418 38.4703 38.4417 38.4704C38.4416 38.4704 38.4415 38.4705 38.4413 38.4706C38.4412 38.4707 38.4408 38.471 38.4407 38.471C38.4405 38.4711 38.4404 38.4712 38.4403 38.4713C38.4402 38.4714 38.44 38.4715 38.4399 38.4715C38.4398 38.4716 38.4397 38.4717 38.4395 38.4718C38.4394 38.4719 38.4393 38.472 38.4391 38.4721C38.4388 38.4723 38.4386 38.4724 38.4383 38.4726C38.4369 38.4735 38.432 38.4768 38.4295 38.4785C38.429 38.4788 38.4273 38.48 38.4267 38.4803C38.4265 38.4805 38.4256 38.4811 38.4253 38.4813C38.425 38.4815 38.4241 38.4821 38.4238 38.4823C38.4226 38.4831 38.4218 38.4836 38.4206 38.4844C38.4204 38.4845 38.4191 38.4854 38.4189 38.4855C38.4186 38.4857 38.4183 38.4859 38.418 38.4861C38.4178 38.4863 38.4175 38.4865 38.4172 38.4867C38.4145 38.4885 38.3894 38.5052 38.382 38.5101C38.3808 38.5109 38.3615 38.5238 38.3592 38.5254C38.358 38.5262 38.3479 38.5329 38.3464 38.5339C38.3459 38.5342 38.3453 38.5346 38.3448 38.535C38.3442 38.5353 38.3437 38.5357 38.3431 38.5361C38.3425 38.5365 38.342 38.5368 38.3414 38.5372C38.3409 38.5376 38.3403 38.538 38.3397 38.5383C38.3392 38.5387 38.3386 38.5391 38.338 38.5395C38.3374 38.5399 38.3369 38.5402 38.3363 38.5406C38.3357 38.541 38.3351 38.5414 38.3346 38.5418C38.334 38.5422 38.3334 38.5426 38.3328 38.5429C38.3007 38.5644 38.2431 38.6028 38.1922 38.6367C38.1253 38.6813 38.081 38.7108 37.9953 38.7679C37.7808 38.9109 37.7223 38.95 37.4328 39.1429C37.4308 39.1443 37.4136 39.1557 37.4116 39.1571C37.4075 39.1598 37.405 39.1615 37.4009 39.1642C37.3991 39.1654 37.3973 39.1666 37.3956 39.1678C37.3938 39.169 37.392 39.1702 37.3902 39.1714C37.3881 39.1727 37.3707 39.1844 37.3685 39.1858C37.3644 39.1885 37.3509 39.1976 37.3467 39.2004C37.3425 39.2032 37.3068 39.227 37.3023 39.23C37.2982 39.2327 37.2614 39.2572 37.257 39.2601C37.2483 39.2659 37.1737 39.3157 37.1639 39.3222C37.1557 39.3277 37.0765 39.3804 37.0672 39.3867C37.0637 39.389 37.0584 39.3926 37.0548 39.3949C37.0528 39.3963 37.0507 39.3977 37.0487 39.399C37.0466 39.4004 37.0445 39.4018 37.0425 39.4032C37.033 39.4095 37.027 39.4134 37.0175 39.4198C37.0139 39.4222 37.0086 39.4258 37.005 39.4282C37.0029 39.4296 37.0008 39.431 36.9987 39.4324C36.9966 39.4338 36.9945 39.4352 36.9924 39.4366C36.9875 39.4398 36.9845 39.4418 36.9797 39.445C36.9749 39.4482 36.9718 39.4503 36.967 39.4535C36.9379 39.4729 36.8936 39.5024 36.8633 39.5226C36.7822 39.5767 36.731 39.6108 36.6453 39.6679L37.7547 41.332C37.8186 41.2895 37.8027 41.3 37.8654 41.2582C37.8758 41.2513 37.9635 41.1929 37.9727 41.1867C37.9961 41.1711 38.1578 41.0633 38.1766 41.0508C38.2891 40.9758 38.4484 40.8696 38.5422 40.807C38.5911 40.7745 38.6598 40.7287 38.7039 40.6992C38.7296 40.6821 38.7168 40.6906 38.7422 40.6737C38.7529 40.6666 38.769 40.6558 38.7795 40.6488C38.781 40.6478 38.7826 40.6468 38.7841 40.6458C38.7856 40.6448 38.7872 40.6437 38.7887 40.6427C38.7974 40.6369 38.7892 40.6424 38.7979 40.6366C38.8031 40.6331 38.8108 40.628 38.816 40.6245C38.8365 40.6109 38.8314 40.6143 38.8516 40.6008C38.9334 40.5463 39.0416 40.4741 39.1047 40.432C39.2119 40.3606 39.41 40.2285 39.4422 40.207C39.4761 40.1844 39.5114 40.1609 39.5266 40.1508C39.5422 40.1404 39.5367 40.144 39.5477 40.1367C39.5502 40.135 39.5515 40.1342 39.5529 40.1332C39.5541 40.1324 39.5534 40.1329 39.5543 40.1323C39.5545 40.1322 39.5544 40.1323 39.5546 40.1321C39.5546 40.1321 39.5547 40.1321 39.5547 40.1321C39.5547 40.1321 39.5547 40.1321 39.5547 40.1321C39.5547 40.1321 39.5547 40.132 39 39.3ZM36.5384 39.7502C35.4249 40.7327 34.7364 41 34.4 41V43C35.5303 43 36.7085 42.2673 37.8616 41.2498L36.5384 39.7502ZM34.4 41C32.8378 41 31.6314 40.6122 30.7075 39.9056L29.4926 41.4944C30.8352 42.5211 32.4956 43 34.4 43V41ZM30.7075 39.9056C29.6949 39.1313 28.6686 37.9647 27.6423 36.3609L25.9577 37.4391C27.0647 39.1687 28.2385 40.5354 29.4926 41.4944L30.7075 39.9056ZM27.617 36.3233L22.817 29.5233L21.183 30.6767L25.983 37.4767L27.617 36.3233ZM22.8137 29.5188C19.4825 24.8551 17.0615 21.3389 15.5427 18.9616L13.8573 20.0384C15.4051 22.4611 17.8508 26.0116 21.1863 30.6812L22.8137 29.5188ZM13.7 19.5C13.7 25.661 14.0012 34.016 14.6016 44.5569L16.5984 44.4431C15.9988 33.9174 15.7 25.6056 15.7 19.5H13.7ZM14.6029 44.5767C15.0692 50.6375 15.3 55.173 15.3 58.2H17.3C17.3 55.0936 17.0642 50.4959 16.5971 44.4233L14.6029 44.5767ZM15.3 58.2C15.3 59.6262 14.9464 60.7836 14.283 61.7233L15.917 62.8767C16.8536 61.5497 17.3 59.9738 17.3 58.2H15.3ZM14.3 61.7C13.7433 62.4423 12.8219 62.9 11.3 62.9V64.9C13.2448 64.9 14.8567 64.291 15.9 62.9L14.3 61.7ZM11.3 62.9C9.6898 62.9 8.44524 62.59 7.50702 62.0381L6.49298 63.7619C7.82143 64.5434 9.44354 64.9 11.3 64.9V62.9ZM7.53 62.052C6.76021 61.5709 6.35027 60.8804 6.29875 59.8501L4.30125 59.9499C4.38306 61.5863 5.10646 62.8958 6.47 63.748L7.53 62.052ZM6.29827 59.9587C6.36682 58.7935 6.4 56.9012 6.4 54.3H4.4C4.4 56.8988 4.36652 58.7398 4.30173 59.8413L6.29827 59.9587ZM6.4 54.3C6.4 49.0803 6.23274 42.7311 5.89901 35.2554L3.901 35.3446C4.23393 42.8022 4.4 49.1197 4.4 54.3H6.4ZM5.89932 35.263L5.69932 29.863L3.70069 29.937L3.90069 35.337L5.89932 35.263ZM5.69959 29.8714L5.49959 22.8714L3.50041 22.9286L3.70041 29.9286L5.69959 29.8714ZM5.49948 22.8678C5.43292 20.8044 5.36632 18.4071 5.2997 15.6756L3.3003 15.7244C3.36701 18.4596 3.43375 20.8623 3.50052 22.9322L5.49948 22.8678ZM5.29972 15.6762C5.23327 12.8853 5.2 9.85999 5.2 6.6H3.2C3.2 9.87333 3.2334 12.9147 3.30028 15.7238L5.29972 15.6762ZM5.2 6.6C5.2 4.77561 5.69038 3.58517 6.50328 2.8348C7.3313 2.07048 8.6685 1.6 10.7 1.6V-0.4C8.39817 -0.4 6.48537 0.129523 5.14672 1.3652C3.79295 2.61483 3.2 4.42439 3.2 6.6H5.2ZM10.7 1.6C11.8606 1.6 13.0417 1.8889 14.2528 2.49443L15.1472 0.705571C13.6916 -0.0222383 12.2061 -0.4 10.7 -0.4V1.6ZM14.2701 2.50286C15.4924 3.08493 16.3575 3.90626 16.9151 4.96574L18.6849 4.03425C17.9092 2.5604 16.7076 1.4484 15.1299 0.697138L14.2701 2.50286ZM16.8251 4.72282C17.4016 7.24461 19.4619 11.2458 22.8538 16.6328L24.5462 15.5672C21.1381 10.1542 19.2651 6.42205 18.7749 4.27717L16.8251 4.72282ZM22.8538 16.6328C26.2605 22.0434 29.6015 27.1219 32.877 31.868L34.523 30.732C31.2652 26.0114 27.9395 20.9566 24.5462 15.5672L22.8538 16.6328ZM34.4863 31.9178C37.4111 28.1953 39.7824 25.4318 41.6071 23.6071L40.1929 22.1929C38.2843 24.1015 35.8555 26.938 32.9137 30.6822L34.4863 31.9178ZM41.6144 23.5998C44.8374 20.3096 47.5033 17.2407 49.6046 14.3938L47.9954 13.2061C45.9633 15.9593 43.3626 18.9571 40.1856 22.2002L41.6144 23.5998ZM49.5954 14.406C51.7519 11.5757 54.0692 8.18274 56.5472 4.23128L54.8528 3.16871C52.3975 7.08392 50.1148 10.4243 48.0046 13.194L49.5954 14.406ZM56.5 4.3C56.9803 3.65955 57.7036 3.08584 58.7258 2.60482L57.8742 0.795179C56.6297 1.38082 55.6197 2.14045 54.9 3.09999L56.5 4.3ZM58.7679 2.58379C59.7589 2.05911 60.7985 1.8 61.9 1.8V-0.200003C60.4681 -0.200003 59.1077 0.14088 57.8321 0.816209L58.7679 2.58379ZM101.313 1.5L100.759 2.33205L100.771 2.34021L100.783 2.348L101.313 1.5ZM103.213 5L102.22 5.11914L102.222 5.13469L102.225 5.15017L103.213 5ZM104.713 20.8L103.714 20.8379L103.715 20.8512L104.713 20.8ZM104.413 53.8L103.415 53.7371L103.354 54.7078L104.323 54.7959L104.413 53.8ZM118.913 53.7L118.996 54.6965L119.026 54.6941L119.055 54.6899L118.913 53.7ZM129.413 53.7L129.171 54.6701L129.194 54.6759L129.217 54.6806L129.413 53.7ZM133.513 55.1L134.009 54.2318L133.977 54.2132L133.943 54.1971L133.513 55.1ZM134.313 62.4L133.537 61.7694L133.525 61.7845L133.513 61.8L134.313 62.4ZM127.613 63.6L127.765 62.6116L127.761 62.6109L127.613 63.6ZM115.413 63.1L115.472 64.0983L115.498 64.0968L115.524 64.0939L115.413 63.1ZM112.913 63.2V62.2H112.851L112.789 62.2077L112.913 63.2ZM99.3133 63L99.4404 62.0081L99.4266 62.0063L99.4128 62.005L99.3133 63ZM95.3133 61.5L94.7398 62.3192L94.7539 62.3291L94.7683 62.3384L95.3133 61.5ZM93.7133 49.8L92.7156 49.7322L92.7154 49.7356L93.7133 49.8ZM93.5133 19.5L94.5098 19.417L94.5089 19.4058L94.5077 19.3947L93.5133 19.5ZM93.8133 1.7L93.135 0.965195L93.1203 0.978755L93.1062 0.992891L93.8133 1.7ZM97.9133 1.49999C98.9937 1.49999 99.9319 1.78095 100.759 2.33205L101.868 0.667951C100.695 -0.114294 99.3662 -0.500005 97.9133 -0.500005V1.49999ZM100.783 2.348C101.514 2.80451 102.044 3.64536 102.22 5.11914L104.206 4.88085C103.983 3.02131 103.246 1.52883 101.843 0.652001L100.783 2.348ZM102.225 5.15017C103.019 10.3801 103.515 15.6093 103.714 20.8379L105.713 20.7621C105.511 15.4574 105.008 10.1533 104.202 4.84982L102.225 5.15017ZM103.715 20.8512C103.98 26.0304 104.113 31.9128 104.113 38.5H106.113C106.113 31.8872 105.98 25.9696 105.712 20.7488L103.715 20.8512ZM104.113 38.5C104.113 41.2643 103.882 46.3348 103.415 53.7371L105.411 53.8629C105.878 46.4652 106.113 41.3357 106.113 38.5H104.113ZM104.323 54.7959C107.266 55.0634 109.568 55.2 111.213 55.2V53.2C109.659 53.2 107.428 53.0699 104.504 52.8041L104.323 54.7959ZM111.213 55.2C112.397 55.2 115.008 55.0289 118.996 54.6965L118.83 52.7035C114.818 53.0378 112.297 53.2 111.213 53.2V55.2ZM119.055 54.6899C121.357 54.3611 123.341 54.2 125.013 54.2V52.2C123.219 52.2 121.137 52.3722 118.772 52.71L119.055 54.6899ZM125.013 54.2C126.545 54.2 127.928 54.3596 129.171 54.6701L129.656 52.7299C128.231 52.3738 126.682 52.2 125.013 52.2V54.2ZM129.217 54.6806C130.459 54.929 131.748 55.3668 133.083 56.0029L133.943 54.1971C132.479 53.4999 131.034 53.0043 129.609 52.7194L129.217 54.6806ZM133.017 55.9682C134.093 56.5829 134.613 57.4773 134.613 58.8H136.613C136.613 56.7894 135.734 55.2171 134.009 54.2318L133.017 55.9682ZM134.613 58.8C134.613 59.8961 134.264 60.875 133.537 61.7694L135.089 63.0306C136.096 61.7916 136.613 60.3706 136.613 58.8H134.613ZM133.513 61.8C132.864 62.6651 132.174 63 131.413 63V65C132.919 65 134.162 64.2682 135.113 63L133.513 61.8ZM131.413 63C130.695 63 129.493 62.8774 127.765 62.6116L127.461 64.5884C129.2 64.8559 130.531 65 131.413 65V63ZM127.761 62.6109C124.584 62.1377 121.534 61.9 118.613 61.9V63.9C121.426 63.9 124.376 64.1289 127.466 64.5891L127.761 62.6109ZM118.613 61.9C117.634 61.9 116.53 61.9698 115.303 62.1061L115.524 64.0939C116.697 63.9635 117.726 63.9 118.613 63.9V61.9ZM115.355 62.1017C114.224 62.1682 113.415 62.2 112.913 62.2V64.2C113.478 64.2 114.336 64.1651 115.472 64.0983L115.355 62.1017ZM112.789 62.2077C111.23 62.4026 109.671 62.5 108.113 62.5V64.5C109.755 64.5 111.396 64.3974 113.037 64.1923L112.789 62.2077ZM108.113 62.5C104.879 62.5 101.99 62.3349 99.4404 62.0081L99.1861 63.9919C101.837 64.3317 104.814 64.5 108.113 64.5V62.5ZM99.4128 62.005C98.2654 61.8902 97.0826 61.4574 95.8583 60.6616L94.7683 62.3384C96.2106 63.2759 97.6945 63.8431 99.2138 63.995L99.4128 62.005ZM95.8867 60.6808C94.8406 59.9485 94.3133 58.932 94.3133 57.5H92.3133C92.3133 59.5346 93.1193 61.1849 94.7398 62.3192L95.8867 60.6808ZM94.3133 57.5C94.3133 56.5397 94.4437 54.0105 94.7112 49.8644L92.7154 49.7356C92.4495 53.8562 92.3133 56.4603 92.3133 57.5H94.3133ZM94.711 49.8678C95.1781 42.9949 95.4133 37.7346 95.4133 34.1H93.4133C93.4133 37.6654 93.1818 42.8717 92.7156 49.7322L94.711 49.8678ZM95.4133 34.1C95.4133 31.2684 95.2785 28.306 95.0095 25.2134L93.017 25.3866C93.2814 28.4273 93.4133 31.3316 93.4133 34.1H95.4133ZM95.0095 25.2134C94.7428 22.1461 94.5763 20.2148 94.5098 19.417L92.5167 19.583C92.5836 20.3852 92.7504 22.3206 93.017 25.3866L95.0095 25.2134ZM94.5077 19.3947C93.9096 13.7462 93.6133 9.11786 93.6133 5.5H91.6133C91.6133 9.21547 91.9169 13.9205 92.5188 19.6053L94.5077 19.3947ZM93.6133 5.5C93.6133 3.89362 93.9871 2.94036 94.5204 2.4071L93.1062 0.992891C92.0394 2.05964 91.6133 3.63971 91.6133 5.5H93.6133ZM94.4916 2.4348C95.0915 1.88103 96.1581 1.49999 97.9133 1.49999V-0.500005C95.9352 -0.500005 94.2684 -0.0810359 93.135 0.965195L94.4916 2.4348ZM207.202 58.4L206.695 59.2623L206.724 59.2794L206.754 59.2944L207.202 58.4ZM208.702 59.7L207.854 60.23L207.876 60.266L207.902 60.3L208.702 59.7ZM207.802 65L207.21 64.1936L207.193 64.206L207.177 64.2191L207.802 65ZM199.502 65.1L199.094 66.0131L199.115 66.0224L199.136 66.0308L199.502 65.1ZM188.202 54.9L187.394 55.49L187.398 55.495L188.202 54.9ZM175.702 34.4L176.583 33.928L176.026 32.8866L175.091 33.6084L175.702 34.4ZM164.102 42.6L163.56 41.7593L163.102 42.0546V42.6H164.102ZM164.202 47.5L163.202 47.5357L163.203 47.5548L163.204 47.5739L164.202 47.5ZM164.402 51.5H163.402V51.5172L163.402 51.5345L164.402 51.5ZM163.502 62.5L164.308 63.0914L164.317 63.0791L164.326 63.0665L163.502 62.5ZM155.602 63L154.984 63.7863L155.002 63.8004L155.02 63.8137L155.602 63ZM153.902 59.9L154.891 59.7517L154.889 59.742L153.902 59.9ZM153.902 35.3L152.905 35.2152L152.905 35.2186L153.902 35.3ZM154.502 16L153.502 16.037L153.503 16.0479L153.503 16.0587L154.502 16ZM153.902 11L152.909 11.124L152.915 11.1686L152.924 11.2124L153.902 11ZM154.902 1.89999L155.609 2.6071L155.609 2.6071L154.902 1.89999ZM162.802 1.8L162.121 2.53279L162.148 2.55785L162.177 2.58086L162.802 1.8ZM164.502 5.1L165.5 5.04127L165.499 5.0232L165.497 5.00519L164.502 5.1ZM165.002 18.2L166.001 18.24L166.002 18.22V18.2H165.002ZM164.602 25.4L163.604 25.3363L163.603 25.3464L163.603 25.3566L164.602 25.4ZM164.202 31.2L163.215 31.0356L162.873 33.0879L164.689 32.0729L164.202 31.2ZM177.502 20.3L178.174 21.0399L178.175 21.0396L177.502 20.3ZM191.702 6L190.946 5.34507L190.935 5.35817L190.924 5.37166L191.702 6ZM193.002 4.5L193.757 5.15493L193.778 5.13111L193.797 5.10604L193.002 4.5ZM195.702 1.6L196.29 2.40874L196.29 2.40873L195.702 1.6ZM202.102 2.1L201.447 2.85569L201.473 2.87881L201.502 2.9L202.102 2.1ZM200.302 11.7L199.594 10.9929L199.588 10.9992L199.582 11.0056L200.302 11.7ZM183.702 27.7L183.036 26.9536L182.45 27.4761L182.819 28.1693L183.702 27.7ZM195.202 46.8L194.382 47.3735L194.386 47.3793L194.391 47.3851L195.202 46.8ZM206.754 59.2944C207.287 59.5609 207.635 59.8795 207.854 60.23L209.55 59.17C209.102 58.4538 208.449 57.9058 207.649 57.5056L206.754 59.2944ZM207.902 60.3C208.121 60.5929 208.302 61.1135 208.302 62H210.302C210.302 60.8865 210.082 59.8738 209.502 59.1L207.902 60.3ZM208.302 62C208.302 62.9562 207.947 63.6534 207.21 64.1936L208.393 65.8064C209.656 64.88 210.302 63.5771 210.302 62H208.302ZM207.177 64.2191C206.341 64.8875 205.459 65.2 204.502 65.2V67.2C205.944 67.2 207.262 66.7125 208.426 65.7809L207.177 64.2191ZM204.502 65.2C203.197 65.2 201.657 64.8725 199.867 64.1692L199.136 66.0308C201.079 66.7941 202.873 67.2 204.502 67.2V65.2ZM199.909 64.1869C196.398 62.6192 192.755 59.3707 189.005 54.305L187.398 55.495C191.248 60.696 195.139 64.2475 199.094 66.0131L199.909 64.1869ZM189.009 54.31C185.246 49.1609 181.104 42.3715 176.583 33.928L174.82 34.872C179.366 43.3619 183.557 50.2391 187.394 55.49L189.009 54.31ZM175.091 33.6084C171.312 36.5248 167.469 39.2417 163.56 41.7593L164.643 43.4407C168.601 40.8916 172.491 38.1418 176.313 35.1916L175.091 33.6084ZM163.102 42.6C163.102 44.0151 163.135 45.6608 163.202 47.5357L165.201 47.4643C165.135 45.6059 165.102 43.9849 165.102 42.6H163.102ZM163.204 47.5739C163.337 49.3696 163.402 50.6723 163.402 51.5H165.402C165.402 50.5944 165.332 49.2304 165.199 47.4261L163.204 47.5739ZM163.402 51.5345C163.536 55.4042 163.602 57.9535 163.602 59.2H165.602C165.602 57.9131 165.534 55.3291 165.401 51.4655L163.402 51.5345ZM163.602 59.2C163.602 60.1032 163.313 61.009 162.678 61.9335L164.326 63.0665C165.157 61.8577 165.602 60.5634 165.602 59.2H163.602ZM162.695 61.9086C162.186 62.6028 161.416 63 160.202 63V65C161.921 65 163.35 64.3972 164.308 63.0914L162.695 61.9086ZM160.202 63C158.122 63 156.854 62.6654 156.183 62.1863L155.02 63.8137C156.216 64.6679 158.014 65 160.202 65V63ZM156.219 62.2137C155.514 61.6596 155.058 60.8698 154.89 59.7517L152.913 60.0483C153.145 61.5969 153.822 62.8738 154.984 63.7863L156.219 62.2137ZM154.889 59.742C154.363 56.4558 154.102 53.3088 154.102 50.3H152.102C152.102 53.4246 152.373 56.6776 152.914 60.058L154.889 59.742ZM154.102 50.3C154.102 46.8747 154.366 41.9069 154.898 35.3814L152.905 35.2186C152.371 41.7598 152.102 46.792 152.102 50.3H154.102ZM154.898 35.3848C155.432 29.112 155.702 24.3774 155.702 21.2H153.702C153.702 24.2892 153.438 28.9547 152.905 35.2152L154.898 35.3848ZM155.702 21.2C155.702 19.9702 155.634 18.2136 155.5 15.9413L153.503 16.0587C153.636 18.3198 153.702 20.0298 153.702 21.2H155.702ZM155.501 15.963C155.432 14.1124 155.226 12.3863 154.879 10.7876L152.924 11.2124C153.243 12.6803 153.437 14.2876 153.502 16.037L155.501 15.963ZM154.894 10.876C154.627 8.74121 154.502 7.29735 154.502 6.5H152.502C152.502 7.43597 152.643 8.99211 152.909 11.124L154.894 10.876ZM154.502 6.5C154.502 4.47527 154.95 3.26545 155.609 2.6071L154.194 1.19289C152.986 2.40121 152.502 4.25805 152.502 6.5H154.502ZM155.609 2.6071C156.282 1.93328 157.41 1.49999 159.202 1.49999V-0.500005C157.126 -0.500005 155.387 4.00012e-05 154.194 1.19289L155.609 2.6071ZM159.202 1.49999C160.457 1.49999 161.401 1.86387 162.121 2.53279L163.482 1.0672C162.336 0.00278296 160.88 -0.500005 159.202 -0.500005V1.49999ZM162.177 2.58086C162.944 3.19429 163.396 4.03503 163.506 5.1948L165.497 5.00519C165.341 3.36496 164.659 2.00571 163.426 1.01913L162.177 2.58086ZM163.503 5.15872C163.836 10.8193 164.002 15.1629 164.002 18.2H166.002C166.002 15.1038 165.834 10.7141 165.5 5.04127L163.503 5.15872ZM164.002 18.16C163.936 19.8147 163.803 22.2053 163.604 25.3363L165.6 25.4637C165.8 22.328 165.934 19.9187 166.001 18.24L164.002 18.16ZM163.603 25.3566C163.468 28.4437 163.336 30.3087 163.215 31.0356L165.188 31.3644C165.333 30.4913 165.468 28.4896 165.601 25.4434L163.603 25.3566ZM164.689 32.0729C167.076 30.7393 171.597 27.0189 178.174 21.0399L176.829 19.5601C170.206 25.5811 165.861 29.1274 163.714 30.3271L164.689 32.0729ZM178.175 21.0396C184.849 14.9659 189.629 10.1571 192.48 6.62833L190.924 5.37166C188.174 8.7762 183.487 13.5008 176.829 19.5604L178.175 21.0396ZM192.457 6.65493L193.757 5.15493L192.246 3.84507L190.946 5.34507L192.457 6.65493ZM193.797 5.10604C194.849 3.7251 195.678 2.85375 196.29 2.40874L195.113 0.791261C194.259 1.41291 193.287 2.47489 192.206 3.89395L193.797 5.10604ZM196.29 2.40873C196.796 2.04038 197.565 1.8 198.702 1.8V-0.200003C197.305 -0.200003 196.074 0.09295 195.113 0.791263L196.29 2.40873ZM198.702 1.8C199.716 1.8 200.62 2.13891 201.447 2.85569L202.756 1.34431C201.584 0.327756 200.22 -0.200003 198.702 -0.200003V1.8ZM201.502 2.9C202.367 3.54884 202.702 4.23936 202.702 5H204.702C204.702 3.49397 203.97 2.25115 202.702 1.3L201.502 2.9ZM202.702 5C202.702 6.8342 201.759 8.82808 199.594 10.9929L201.009 12.4071C203.377 10.0386 204.702 7.56579 204.702 5H202.702ZM199.582 11.0056C194.065 16.7222 188.549 22.0381 183.036 26.9536L184.367 28.4464C189.92 23.4953 195.472 18.1444 201.021 12.3944L199.582 11.0056ZM182.819 28.1693C186.766 35.5957 190.62 41.9989 194.382 47.3735L196.021 46.2265C192.316 40.9345 188.504 34.6043 184.585 27.2307L182.819 28.1693ZM194.391 47.3851C198.246 52.7287 202.343 56.7061 206.695 59.2623L207.708 57.5377C203.66 55.1606 199.757 51.4046 196.013 46.2149L194.391 47.3851Z" fill="black"/>
</g>
<defs>
<filter id="filter0_d_2_3" x="0.199997" y="0.499992" width="213.102" height="73.7" filterUnits="userSpaceOnUse" color-interpolation-filters="sRGB">
<feFlood flood-opacity="0" result="BackgroundImageFix"/>
<feColorMatrix in="SourceAlpha" type="matrix" values="0 0 0 0 0 0 0 0 0 0 0 0 0 0 0 0 0 0 127 0" result="hardAlpha"/>
<feOffset dy="4"/>
<feGaussianBlur stdDeviation="2"/>
<feComposite in2="hardAlpha" operator="out"/>
<feColorMatrix type="matrix" values="0 0 0 0 0 0 0 0 0 0 0 0 0 0 0 0 0 0 0.25 0"/>
<feBlend mode="normal" in2="BackgroundImageFix" result="effect1_dropShadow_2_3"/>
<feBlend mode="normal" in="SourceGraphic" in2="effect1_dropShadow_2_3" result="shape"/>
</filter>
</defs>
</svg>
